SplineFontDB: 3.0
FontName: Computerfont
FullName: Computerfont Regular
FamilyName: Computerfont
Weight: Thin
Copyright: Generated by Fontographer 3.5
Version: Altsys Fontographer 3.5  9/13/92
ItalicAngle: 0
UnderlinePosition: -176
UnderlineWidth: 20
Ascent: 750
Descent: 250
InvalidEm: 0
sfntRevision: 0x00010000
LayerCount: 2
Layer: 0 1 "Arri+AOgA-re" 1
Layer: 1 1 "Avant" 0
XUID: [1021 986 1074858159 9287375]
StyleMap: 0x0040
FSType: 0
OS2Version: 0
OS2_WeightWidthSlopeOnly: 0
OS2_UseTypoMetrics: 0
CreationTime: 716387662
ModificationTime: 1574759676
PfmFamily: 81
TTFWeight: 5
TTFWidth: 5
LineGap: 0
VLineGap: 0
Panose: 0 0 0 0 0 0 0 0 0 0
OS2TypoAscent: 750
OS2TypoAOffset: 0
OS2TypoDescent: -250
OS2TypoDOffset: 0
OS2TypoLinegap: 0
OS2WinAscent: 766
OS2WinAOffset: 0
OS2WinDescent: 496
OS2WinDOffset: 0
HheadAscent: 750
HheadAOffset: 0
HheadDescent: -250
HheadDOffset: 0
OS2SubXSize: 700
OS2SubYSize: 650
OS2SubXOff: 0
OS2SubYOff: 143
OS2SupXSize: 700
OS2SupYSize: 650
OS2SupXOff: 0
OS2SupYOff: 453
OS2StrikeYSize: 50
OS2StrikeYPos: 259
OS2Vendor: 'Alts'
OS2UnicodeRanges: 00000000.00000000.00000000.00000000
DEI: 91125
TtTable: prep
NPUSHB
 14
 35
 35
 34
 34
 16
 16
 2
 2
 0
 0
 17
 17
 69
 1
SCANTYPE
PUSHW_1
 511
SCANCTRL
SROUND
RCVT
ROUND[Grey]
WCVTP
RTG
PUSHB_4
 1
 0
 70
 0
CALL
PUSHB_4
 3
 0
 70
 0
CALL
PUSHB_4
 4
 0
 70
 0
CALL
PUSHB_4
 5
 16
 70
 0
CALL
PUSHB_4
 6
 0
 70
 0
CALL
PUSHB_4
 7
 2
 70
 0
CALL
PUSHB_4
 8
 16
 70
 0
CALL
PUSHB_4
 9
 16
 70
 0
CALL
PUSHB_4
 10
 2
 70
 0
CALL
PUSHB_4
 11
 0
 70
 0
CALL
PUSHB_4
 12
 2
 70
 0
CALL
PUSHB_4
 13
 0
 70
 0
CALL
PUSHB_4
 14
 0
 70
 0
CALL
PUSHB_4
 15
 0
 70
 0
CALL
PUSHB_4
 18
 17
 70
 0
CALL
PUSHB_4
 19
 2
 70
 0
CALL
PUSHB_4
 20
 16
 70
 0
CALL
PUSHB_4
 21
 16
 70
 0
CALL
PUSHB_4
 22
 2
 70
 0
CALL
PUSHB_4
 23
 2
 70
 0
CALL
PUSHB_4
 24
 2
 70
 0
CALL
PUSHB_4
 25
 16
 70
 0
CALL
PUSHB_4
 26
 16
 70
 0
CALL
PUSHB_4
 27
 16
 70
 0
CALL
PUSHB_4
 28
 16
 70
 0
CALL
PUSHB_4
 29
 2
 70
 0
CALL
PUSHB_4
 30
 16
 70
 0

StartChar: .notdef
Encoding: 65536 -1 0
Width: 750
Flags: W
LayerCount: 2
Fore
SplineSet
46 0 m 1,0,-1
 46 750 l 1,1,-1
 704 750 l 1,2,-1
 704 0 l 1,3,-1
 46 0 l 1,0,-1
658 46 m 1,4,-1
 658 704 l 1,5,-1
 92 704 l 1,6,-1
 92 46 l 1,7,-1
 658 46 l 1,4,-1
EndSplineSet
EndChar

StartChar: exclam
Encoding: 33 33 4
Width: 270
Flags: W
LayerCount: 2
Fore
SplineSet
199 150 m 1,0,-1
 66 150 l 1,1,-1
 32 184 l 1,2,-1
 32 516 l 1,3,-1
 66 550 l 1,4,-1
 133 550 l 1,5,-1
 167 516 l 1,6,-1
 167 382 l 1,7,-1
 233 316 l 1,8,-1
 233 184 l 1,9,-1
 199 150 l 1,0,-1
199 -50 m 1,10,-1
 66 -50 l 1,11,-1
 32 -16 l 1,12,-1
 32 50 l 1,13,-1
 66 84 l 1,14,-1
 199 84 l 1,15,-1
 233 50 l 1,16,-1
 233 -16 l 1,17,-1
 199 -50 l 1,10,-1
EndSplineSet
EndChar

StartChar: quotedbl
Encoding: 34 34 5
Width: 572
Flags: W
LayerCount: 2
Fore
SplineSet
229 284 m 1,0,-1
 163 284 l 1,1,-1
 163 416 l 1,2,-1
 62 416 l 1,3,-1
 28 450 l 1,4,-1
 28 516 l 1,5,-1
 62 550 l 1,6,-1
 195 550 l 1,7,-1
 229 516 l 1,8,-1
 229 284 l 1,0,-1
496 283 m 1,9,-1
 429 283 l 1,10,-1
 429 416 l 1,11,-1
 330 416 l 1,12,-1
 296 450 l 1,13,-1
 296 516 l 1,14,-1
 330 550 l 1,15,-1
 462 550 l 1,16,-1
 496 516 l 1,17,-1
 496 283 l 1,9,-1
496 283 m 1,18,-1
 429 283 l 1,19,-1
 429 416 l 1,20,-1
 330 416 l 1,21,-1
 296 450 l 1,22,-1
 296 516 l 1,23,-1
 330 550 l 1,24,-1
 462 550 l 1,25,-1
 496 516 l 1,26,-1
 496 283 l 1,18,-1
EndSplineSet
EndChar

StartChar: numbersign
Encoding: 35 35 6
Width: 550
Flags: W
LayerCount: 2
Fore
SplineSet
181 50 m 1,0,-1
 113 50 l 1,1,-1
 113 150 l 1,2,-1
 13 150 l 1,3,-1
 13 217 l 1,4,-1
 113 217 l 1,5,-1
 113 350 l 1,6,-1
 13 350 l 1,7,-1
 13 417 l 1,8,-1
 113 417 l 1,9,-1
 113 517 l 1,10,-1
 181 517 l 1,11,-1
 181 417 l 1,12,-1
 314 417 l 1,13,-1
 314 517 l 1,14,-1
 381 517 l 1,15,-1
 381 417 l 1,16,-1
 481 417 l 1,17,-1
 481 350 l 1,18,-1
 381 350 l 1,19,-1
 381 217 l 1,20,-1
 481 217 l 1,21,-1
 481 150 l 1,22,-1
 381 150 l 1,23,-1
 381 50 l 1,24,-1
 314 50 l 1,25,-1
 314 150 l 1,26,-1
 181 150 l 1,27,-1
 181 50 l 1,0,-1
181 217 m 1,28,-1
 314 217 l 1,29,-1
 314 350 l 1,30,-1
 181 350 l 1,31,-1
 181 217 l 1,28,-1
EndSplineSet
EndChar

StartChar: dollar
Encoding: 36 36 7
Width: 561
Flags: W
LayerCount: 2
Fore
SplineSet
223 17 m 1,0,-1
 59 17 l 1,1,-1
 24 52 l 1,2,-1
 24 150 l 1,3,-1
 91 150 l 1,4,-1
 91 84 l 1,5,-1
 290 84 l 1,6,-1
 290 217 l 1,7,-1
 59 217 l 1,8,-1
 24 252 l 1,9,-1
 24 450 l 1,10,-1
 58 484 l 1,11,-1
 224 484 l 1,12,-1
 224 617 l 1,13,-1
 290 617 l 1,14,-1
 290 484 l 1,15,-1
 456 484 l 1,16,-1
 491 449 l 1,17,-1
 491 350 l 1,18,-1
 424 350 l 1,19,-1
 424 417 l 1,20,-1
 158 417 l 1,21,-1
 158 284 l 1,22,-1
 457 284 l 1,23,-1
 490 251 l 1,24,-1
 491 52 l 1,25,-1
 456 17 l 1,26,-1
 291 17 l 1,27,-1
 291 -116 l 1,28,-1
 223 -116 l 1,29,-1
 223 17 l 1,0,-1
EndSplineSet
EndChar

StartChar: percent
Encoding: 37 37 8
Width: 715
Flags: W
LayerCount: 2
Fore
SplineSet
253 -50 m 1,0,-1
 121 -50 l 1,1,-1
 87 -16 l 1,2,-1
 87 250 l 1,3,-1
 121 284 l 1,4,-1
 553 284 l 1,5,-1
 553 550 l 1,6,-1
 620 550 l 1,7,-1
 620 250 l 1,8,-1
 586 216 l 1,9,-1
 287 216 l 1,10,-1
 287 -16 l 1,11,-1
 253 -50 l 1,0,-1
253 417 m 1,12,-1
 121 417 l 1,13,-1
 87 451 l 1,14,-1
 87 516 l 1,15,-1
 121 550 l 1,16,-1
 253 550 l 1,17,-1
 287 516 l 1,18,-1
 287 451 l 1,19,-1
 253 417 l 1,12,-1
620 -16 m 1,20,-1
 586 -50 l 1,21,-1
 454 -50 l 1,22,-1
 420 -16 l 1,23,-1
 420 50 l 1,24,-1
 454 84 l 1,25,-1
 586 84 l 1,26,-1
 620 50 l 1,27,-1
 620 -16 l 1,20,-1
EndSplineSet
EndChar

StartChar: ampersand
Encoding: 38 38 9
Width: 677
Flags: W
LayerCount: 2
Fore
SplineSet
468 -50 m 1,0,-1
 69 -50 l 1,1,-1
 34 -15 l 1,2,-1
 34 316 l 1,3,-1
 101 383 l 1,4,-1
 101 516 l 1,5,-1
 135 550 l 1,6,-1
 369 550 l 1,7,-1
 369 484 l 1,8,-1
 234 484 l 1,9,-1
 234 350 l 1,10,-1
 435 350 l 1,11,-1
 435 450 l 1,12,-1
 502 450 l 1,13,-1
 502 350 l 1,14,-1
 602 350 l 1,15,-1
 602 284 l 1,16,-1
 502 284 l 1,17,-1
 502 -16 l 1,18,-1
 468 -50 l 1,0,-1
435 283 m 1,19,-1
 235 283 l 1,20,-1
 235 17 l 1,21,-1
 435 17 l 1,22,-1
 435 283 l 1,19,-1
EndSplineSet
EndChar

StartChar: quotesingle
Encoding: 39 39 10
Width: 297
Flags: W
LayerCount: 2
Fore
SplineSet
206 550 m 1,0,-1
 239 517 l 1,1,-1
 239 350 l 1,2,-1
 174 350 l 1,3,-1
 174 417 l 1,4,-1
 73 417 l 1,5,-1
 40 450 l 1,6,-1
 40 517 l 1,7,-1
 73 550 l 1,8,-1
 206 550 l 1,0,-1
EndSplineSet
EndChar

StartChar: parenleft
Encoding: 40 40 11
Width: 385
Flags: W
LayerCount: 2
Fore
SplineSet
306 -116 m 1,0,-1
 72 -116 l 1,1,-1
 39 -83 l 1,2,-1
 39 584 l 1,3,-1
 72 617 l 1,4,-1
 306 617 l 1,5,-1
 306 550 l 1,6,-1
 173 550 l 1,7,-1
 173 383 l 1,8,-1
 240 316 l 1,9,-1
 240 -50 l 1,10,-1
 306 -50 l 1,11,-1
 306 -116 l 1,0,-1
EndSplineSet
EndChar

StartChar: parenright
Encoding: 41 41 12
Width: 385
Flags: W
LayerCount: 2
Fore
SplineSet
51 -116 m 1,0,-1
 284 -116 l 1,1,-1
 317 -83 l 1,2,-1
 317 583 l 1,3,-1
 284 617 l 1,4,-1
 51 617 l 1,5,-1
 51 550 l 1,6,-1
 185 550 l 1,7,-1
 185 383 l 1,8,-1
 118 316 l 1,9,-1
 118 -50 l 1,10,-1
 51 -50 l 1,11,-1
 51 -116 l 1,0,-1
EndSplineSet
EndChar

StartChar: asterisk
Encoding: 42 42 13
Width: 561
Flags: W
LayerCount: 2
Fore
SplineSet
86 385 m 1,0,-1
 18 417 l 1,1,-1
 18 550 l 1,2,-1
 153 550 l 1,3,-1
 153 417 l 1,4,-1
 218 417 l 1,5,-1
 218 617 l 1,6,-1
 285 617 l 1,7,-1
 285 417 l 1,8,-1
 353 417 l 1,9,-1
 353 550 l 1,10,-1
 485 550 l 1,11,-1
 485 417 l 1,12,-1
 418 385 l 1,13,-1
 485 350 l 1,14,-1
 485 217 l 1,15,-1
 353 217 l 1,16,-1
 353 350 l 1,17,-1
 285 350 l 1,18,-1
 285 150 l 1,19,-1
 218 150 l 1,20,-1
 218 350 l 1,21,-1
 153 350 l 1,22,-1
 153 217 l 1,23,-1
 18 217 l 1,24,-1
 18 350 l 1,25,-1
 86 385 l 1,0,-1
EndSplineSet
EndChar

StartChar: plus
Encoding: 43 43 14
Width: 638
Flags: W
LayerCount: 2
Fore
SplineSet
322 17 m 1,0,-1
 256 17 l 1,1,-1
 256 217 l 1,2,-1
 56 217 l 1,3,-1
 56 284 l 1,4,-1
 256 284 l 1,5,-1
 256 484 l 1,6,-1
 322 484 l 1,7,-1
 322 284 l 1,8,-1
 522 284 l 1,9,-1
 522 217 l 1,10,-1
 322 217 l 1,11,-1
 322 17 l 1,0,-1
EndSplineSet
EndChar

StartChar: comma
Encoding: 44 44 15
Width: 297
Flags: W
LayerCount: 2
Fore
SplineSet
229 -183 m 1,0,-1
 164 -183 l 1,1,-1
 164 -50 l 1,2,-1
 64 -50 l 1,3,-1
 29 -15 l 1,4,-1
 29 50 l 1,5,-1
 63 84 l 1,6,-1
 195 84 l 1,7,-1
 229 50 l 1,8,-1
 229 -183 l 1,0,-1
EndSplineSet
EndChar

StartChar: hyphen
Encoding: 45 45 16
AltUni2: 0000ad.ffffffff.0
Width: 418
Flags: W
LayerCount: 2
Fore
SplineSet
335 215 m 1,0,-1
 35 215 l 1,1,-1
 35 282 l 1,2,-1
 335 282 l 1,3,-1
 335 215 l 1,0,-1
EndSplineSet
EndChar

StartChar: period
Encoding: 46 46 17
Width: 297
Flags: W
LayerCount: 2
Fore
SplineSet
29 49 m 1,0,-1
 64 84 l 1,1,-1
 194 84 l 1,2,-1
 229 49 l 1,3,-1
 229 -15 l 1,4,-1
 194 -50 l 1,5,-1
 64 -50 l 1,6,-1
 29 -15 l 1,7,-1
 29 49 l 1,0,-1
EndSplineSet
EndChar

StartChar: slash
Encoding: 47 47 18
Width: 704
Flags: W
LayerCount: 2
Fore
SplineSet
225 -50 m 1,0,-1
 95 -50 l 1,1,-1
 60 -15 l 1,2,-1
 60 249 l 1,3,-1
 95 284 l 1,4,-1
 526 284 l 1,5,-1
 526 550 l 1,6,-1
 592 550 l 1,7,-1
 592 249 l 1,8,-1
 560 217 l 1,9,-1
 260 217 l 1,10,-1
 260 -15 l 1,11,-1
 225 -50 l 1,0,-1
EndSplineSet
EndChar

StartChar: zero
Encoding: 48 48 19
Width: 550
Flags: W
LayerCount: 2
Fore
SplineSet
13 -16 m 1,0,-1
 13 516 l 1,1,-1
 47 550 l 1,2,-1
 446 550 l 1,3,-1
 480 516 l 1,4,-1
 480 -16 l 1,5,-1
 446 -50 l 1,6,-1
 47 -50 l 1,7,-1
 13 -16 l 1,0,-1
347 484 m 1,8,-1
 80 484 l 1,9,-1
 80 17 l 1,10,-1
 279 17 l 1,11,-1
 279 316 l 1,12,-1
 347 384 l 1,13,-1
 347 484 l 1,8,-1
EndSplineSet
EndChar

StartChar: one
Encoding: 49 49 20
Width: 275
Flags: W
LayerCount: 2
Fore
SplineSet
23 317 m 1,0,-1
 91 385 l 1,1,-1
 91 516 l 1,2,-1
 125 550 l 1,3,-1
 190 550 l 1,4,-1
 224 516 l 1,5,-1
 224 -16 l 1,6,-1
 190 -50 l 1,7,-1
 57 -50 l 1,8,-1
 23 -16 l 1,9,-1
 23 317 l 1,0,-1
EndSplineSet
EndChar

StartChar: two
Encoding: 50 50 21
Width: 550
Flags: W
LayerCount: 2
Fore
SplineSet
18 350 m 1,0,-1
 18 516 l 1,1,-1
 52 550 l 1,2,-1
 451 550 l 1,3,-1
 485 516 l 1,4,-1
 485 183 l 1,5,-1
 452 150 l 1,6,-1
 218 150 l 1,7,-1
 218 17 l 1,8,-1
 420 17 l 1,9,-1
 420 84 l 1,10,-1
 486 84 l 1,11,-1
 486 -17 l 1,12,-1
 453 -50 l 1,13,-1
 52 -50 l 1,14,-1
 19 -17 l 1,15,-1
 19 183 l 1,16,-1
 53 217 l 1,17,-1
 352 217 l 1,18,-1
 352 484 l 1,19,-1
 86 484 l 1,20,-1
 86 350 l 1,21,-1
 18 350 l 1,0,-1
EndSplineSet
EndChar

StartChar: three
Encoding: 51 51 22
Width: 550
Flags: W
LayerCount: 2
Fore
SplineSet
85 417 m 1,0,-1
 19 417 l 1,1,-1
 19 516 l 1,2,-1
 53 550 l 1,3,-1
 385 550 l 1,4,-1
 419 516 l 1,5,-1
 419 382 l 1,6,-1
 485 316 l 1,7,-1
 485 -16 l 1,8,-1
 451 -50 l 1,9,-1
 53 -50 l 1,10,-1
 19 -16 l 1,11,-1
 19 150 l 1,12,-1
 85 150 l 1,13,-1
 85 17 l 1,14,-1
 286 17 l 1,15,-1
 286 284 l 1,16,-1
 85 284 l 1,17,-1
 85 350 l 1,18,-1
 286 350 l 1,19,-1
 286 484 l 1,20,-1
 85 484 l 1,21,-1
 85 417 l 1,0,-1
EndSplineSet
EndChar

StartChar: four
Encoding: 52 52 23
Width: 550
Flags: WO
LayerCount: 2
Fore
SplineSet
346 217 m 25,0,-1
 347 487 l 1049,1,-1
83 486 m 25,2,-1
 80 217 l 1,3,-1
 347 217 l 1025,4,-1
82 484 m 1,5,-1
 83 486 l 25,6,-1
 13 516 l 1,7,-1
 14 186 l 25,8,-1
 49 151 l 25,9,-1
 279 150 l 25,10,-1
 279 -14 l 25,11,-1
 315 -49 l 25,12,-1
 446 -49 l 25,13,-1
 481 -16 l 25,14,-1
 480 493 l 25,15,-1
 480 517 l 1,16,-1
 347 487 l 29,17,-1
 348 486 l 1,18,-1
 348 486 l 1049,19,-1
480 516 m 1,20,-1
 480 -16 l 1,21,-1
 446 -50 l 1,22,-1
 313 -50 l 1,23,-1
 279 -16 l 1,24,-1
 279 150 l 1,25,-1
 47 150 l 1,26,-1
 13 184 l 1,27,-1
 13 516 l 1025,28,-1
EndSplineSet
EndChar

StartChar: five
Encoding: 53 53 24
Width: 550
Flags: W
LayerCount: 2
Fore
SplineSet
23 516 m 1,0,-1
 57 550 l 1,1,-1
 489 550 l 1,2,-1
 489 484 l 1,3,-1
 157 484 l 1,4,-1
 157 350 l 1,5,-1
 456 350 l 1,6,-1
 490 316 l 1,7,-1
 490 -16 l 1,8,-1
 456 -50 l 1,9,-1
 57 -50 l 1,10,-1
 23 -16 l 1,11,-1
 23 150 l 1,12,-1
 89 150 l 1,13,-1
 89 17 l 1,14,-1
 289 17 l 1,15,-1
 289 284 l 1,16,-1
 57 284 l 1,17,-1
 23 318 l 1,18,-1
 23 516 l 1,0,-1
EndSplineSet
EndChar

StartChar: six
Encoding: 54 54 25
Width: 550
Flags: W
LayerCount: 2
Fore
SplineSet
23 -16 m 1,0,-1
 23 516 l 1,1,-1
 57 550 l 1,2,-1
 456 550 l 1,3,-1
 490 516 l 1,4,-1
 490 417 l 1,5,-1
 358 417 l 1,6,-1
 358 484 l 1,7,-1
 91 484 l 1,8,-1
 91 350 l 1,9,-1
 457 350 l 1,10,-1
 490 317 l 1,11,-1
 490 -16 l 1,12,-1
 456 -50 l 1,13,-1
 57 -50 l 1,14,-1
 23 -16 l 1,0,-1
291 284 m 1,15,-1
 90 284 l 1,16,-1
 90 17 l 1,17,-1
 291 17 l 1,18,-1
 291 284 l 1,15,-1
EndSplineSet
EndChar

StartChar: seven
Encoding: 55 55 26
Width: 550
Flags: W
LayerCount: 2
Fore
SplineSet
80 417 m 1,0,-1
 13 417 l 1,1,-1
 13 516 l 1,2,-1
 47 550 l 1,3,-1
 445 550 l 1,4,-1
 479 516 l 1,5,-1
 479 -16 l 1,6,-1
 445 -50 l 1,7,-1
 314 -50 l 1,8,-1
 280 -16 l 1,9,-1
 280 317 l 1,10,-1
 347 384 l 1,11,-1
 347 484 l 1,12,-1
 80 484 l 1,13,-1
 80 417 l 1,0,-1
EndSplineSet
EndChar

StartChar: eight
Encoding: 56 56 27
Width: 550
Flags: W
LayerCount: 2
Fore
SplineSet
13 -16 m 1,0,-1
 13 316 l 1,1,-1
 80 383 l 1,2,-1
 80 516 l 1,3,-1
 114 550 l 1,4,-1
 379 550 l 1,5,-1
 413 516 l 1,6,-1
 413 383 l 1,7,-1
 480 316 l 1,8,-1
 480 -16 l 1,9,-1
 446 -50 l 1,10,-1
 47 -50 l 1,11,-1
 13 -16 l 1,0,-1
279 17 m 1,12,-1
 279 284 l 1,13,-1
 80 284 l 1,14,-1
 80 17 l 1,15,-1
 279 17 l 1,12,-1
279 350 m 1,16,-1
 279 484 l 1,17,-1
 147 484 l 1,18,-1
 147 350 l 1,19,-1
 279 350 l 1,16,-1
EndSplineSet
EndChar

StartChar: nine
Encoding: 57 57 28
Width: 550
Flags: W
LayerCount: 2
Fore
SplineSet
13 184 m 1,0,-1
 13 516 l 1,1,-1
 47 550 l 1,2,-1
 446 550 l 1,3,-1
 480 516 l 1,4,-1
 480 -16 l 1,5,-1
 446 -50 l 1,6,-1
 313 -50 l 1,7,-1
 279 -16 l 1,8,-1
 279 150 l 1,9,-1
 47 150 l 1,10,-1
 13 184 l 1,0,-1
347 217 m 1,11,-1
 347 484 l 1,12,-1
 80 484 l 1,13,-1
 80 217 l 1,14,-1
 347 217 l 1,11,-1
EndSplineSet
EndChar

StartChar: colon
Encoding: 58 58 29
Width: 297
Flags: W
LayerCount: 2
Fore
SplineSet
39 50 m 1,0,-1
 73 84 l 1,1,-1
 205 84 l 1,2,-1
 239 50 l 1,3,-1
 239 -16 l 1,4,-1
 205 -50 l 1,5,-1
 73 -50 l 1,6,-1
 39 -16 l 1,7,-1
 39 50 l 1,0,-1
205 284 m 1,8,-1
 73 284 l 1,9,-1
 39 318 l 1,10,-1
 39 383 l 1,11,-1
 73 417 l 1,12,-1
 205 417 l 1,13,-1
 239 383 l 1,14,-1
 239 318 l 1,15,-1
 205 284 l 1,8,-1
EndSplineSet
EndChar

StartChar: semicolon
Encoding: 59 59 30
Width: 297
Flags: W
LayerCount: 2
Fore
SplineSet
201 284 m 1,0,-1
 69 284 l 1,1,-1
 35 318 l 1,2,-1
 35 383 l 1,3,-1
 69 417 l 1,4,-1
 201 417 l 1,5,-1
 235 383 l 1,6,-1
 235 318 l 1,7,-1
 201 284 l 1,0,-1
169 -50 m 1,8,-1
 69 -50 l 1,9,-1
 35 -16 l 1,10,-1
 35 50 l 1,11,-1
 69 84 l 1,12,-1
 201 84 l 1,13,-1
 235 50 l 1,14,-1
 235 -183 l 1,15,-1
 169 -183 l 1,16,-1
 169 -50 l 1,8,-1
EndSplineSet
EndChar

StartChar: less
Encoding: 60 60 31
Width: 583
Flags: W
LayerCount: 2
Fore
SplineSet
500 550 m 1,0,-1
 200 250 l 1,1,-1
 500 -50 l 1,2,-1
 300 -50 l 1,3,-1
 33 217 l 1,4,-1
 32 284 l 1,5,-1
 300 550 l 1,6,-1
 500 550 l 1,0,-1
EndSplineSet
EndChar

StartChar: equal
Encoding: 61 61 32
Width: 594
Flags: W
LayerCount: 2
Fore
SplineSet
481 284 m 1,0,-1
 81 284 l 1,1,-1
 81 350 l 1,2,-1
 481 350 l 1,3,-1
 481 284 l 1,0,-1
81 217 m 1,4,-1
 481 217 l 1,5,-1
 481 150 l 1,6,-1
 81 150 l 1,7,-1
 81 217 l 1,4,-1
EndSplineSet
EndChar

StartChar: greater
Encoding: 62 62 33
Width: 583
Flags: W
LayerCount: 2
Fore
SplineSet
32 550 m 1,0,-1
 332 250 l 1,1,-1
 32 -50 l 1,2,-1
 232 -50 l 1,3,-1
 499 217 l 1,4,-1
 499 283 l 1,5,-1
 232 550 l 1,6,-1
 32 550 l 1,0,-1
EndSplineSet
EndChar

StartChar: question
Encoding: 63 63 34
Width: 550
Flags: W
LayerCount: 2
Fore
SplineSet
90 50 m 1,0,-1
 124 84 l 1,1,-1
 257 84 l 1,2,-1
 290 51 l 1,3,-1
 290 -17 l 1,4,-1
 257 -50 l 1,5,-1
 124 -50 l 1,6,-1
 90 -16 l 1,7,-1
 90 50 l 1,0,-1
257 150 m 1,8,-1
 124 150 l 1,9,-1
 90 184 l 1,10,-1
 90 316 l 1,11,-1
 124 350 l 1,12,-1
 357 350 l 1,13,-1
 357 484 l 1,14,-1
 90 484 l 1,15,-1
 90 417 l 1,16,-1
 24 417 l 1,17,-1
 24 517 l 1,18,-1
 57 550 l 1,19,-1
 457 550 l 1,20,-1
 490 517 l 1,21,-1
 490 316 l 1,22,-1
 458 284 l 1,23,-1
 290 284 l 1,24,-1
 290 183 l 1,25,-1
 257 150 l 1,8,-1
EndSplineSet
EndChar

StartChar: at
Encoding: 64 64 35
Width: 704
Flags: W
LayerCount: 2
Fore
SplineSet
63 -50 m 1,0,-1
 28 -15 l 1,1,-1
 28 515 l 1,2,-1
 63 550 l 1,3,-1
 595 550 l 1,4,-1
 628 517 l 1,5,-1
 628 117 l 1,6,-1
 595 84 l 1,7,-1
 262 84 l 1,8,-1
 228 118 l 1,9,-1
 228 383 l 1,10,-1
 262 417 l 1,11,-1
 463 417 l 1,12,-1
 496 384 l 1,13,-1
 496 150 l 1,14,-1
 562 150 l 1,15,-1
 562 483 l 1,16,-1
 96 483 l 1,17,-1
 96 316 l 1,18,-1
 163 249 l 1,19,-1
 163 17 l 1,20,-1
 628 17 l 1,21,-1
 628 -50 l 1,22,-1
 63 -50 l 1,0,-1
296 350 m 1,23,-1
 296 151 l 1,24,-1
 428 151 l 1,25,-1
 428 350 l 1,26,-1
 296 350 l 1,23,-1
EndSplineSet
EndChar

StartChar: A
Encoding: 65 65 36
Width: 550
Flags: W
LayerCount: 2
Fore
SplineSet
48 -50 m 1,0,-1
 15 -17 l 1,1,-1
 15 317 l 1,2,-1
 82 384 l 1,3,-1
 82 517 l 1,4,-1
 115 550 l 1,5,-1
 381 550 l 1,6,-1
 415 516 l 1,7,-1
 415 384 l 1,8,-1
 482 317 l 1,9,-1
 482 -50 l 1,10,-1
 415 -50 l 1,11,-1
 415 284 l 1,12,-1
 214 284 l 1,13,-1
 214 -17 l 1,14,-1
 181 -50 l 1,15,-1
 48 -50 l 1,0,-1
214 484 m 1,16,-1
 214 350 l 1,17,-1
 349 350 l 1,18,-1
 349 484 l 1,19,-1
 214 484 l 1,16,-1
EndSplineSet
EndChar

StartChar: B
Encoding: 66 66 37
Width: 567
Flags: W
LayerCount: 2
Fore
SplineSet
358 484 m 1,0,-1
 358 350 l 1,1,-1
 157 350 l 1,2,-1
 157 484 l 1,3,-1
 358 484 l 1,0,-1
425 17 m 1,4,-1
 223 17 l 1,5,-1
 223 284 l 1,6,-1
 425 284 l 1,7,-1
 425 17 l 1,4,-1
491 317 m 1,8,-1
 425 383 l 1,9,-1
 425 516 l 1,10,-1
 391 550 l 1,11,-1
 58 550 l 1,12,-1
 24 516 l 1,13,-1
 24 -16 l 1,14,-1
 58 -50 l 1,15,-1
 456 -50 l 1,16,-1
 490 -16 l 1,17,-1
 491 317 l 1,8,-1
EndSplineSet
EndChar

StartChar: C
Encoding: 67 67 38
Width: 578
Flags: W
LayerCount: 2
Fore
SplineSet
172 484 m 1,0,-1
 172 383 l 1,1,-1
 238 316 l 1,2,-1
 238 17 l 1,3,-1
 439 17 l 1,4,-1
 439 84 l 1,5,-1
 505 84 l 1,6,-1
 505 -16 l 1,7,-1
 471 -50 l 1,8,-1
 73 -50 l 1,9,-1
 39 -16 l 1,10,-1
 39 516 l 1,11,-1
 73 550 l 1,12,-1
 472 550 l 1,13,-1
 506 516 l 1,14,-1
 506 417 l 1,15,-1
 439 417 l 1,16,-1
 439 484 l 1,17,-1
 172 484 l 1,0,-1
EndSplineSet
EndChar

StartChar: D
Encoding: 68 68 39
Width: 572
Flags: W
LayerCount: 2
Fore
SplineSet
492 515 m 1,0,-1
 492 -15 l 1,1,-1
 457 -50 l 1,2,-1
 61 -50 l 1,3,-1
 26 -15 l 1,4,-1
 26 515 l 1,5,-1
 61 550 l 1,6,-1
 457 550 l 1,7,-1
 492 515 l 1,0,-1
426 17 m 1,8,-1
 426 484 l 1,9,-1
 160 484 l 1,10,-1
 160 383 l 1,11,-1
 226 317 l 1,12,-1
 226 17 l 1,13,-1
 426 17 l 1,8,-1
EndSplineSet
EndChar

StartChar: E
Encoding: 69 69 40
Width: 506
Flags: W
LayerCount: 2
Fore
SplineSet
167 484 m 1,0,-1
 167 350 l 1,1,-1
 433 350 l 1,2,-1
 433 284 l 1,3,-1
 234 284 l 1,4,-1
 234 17 l 1,5,-1
 433 17 l 1,6,-1
 433 -50 l 1,7,-1
 68 -50 l 1,8,-1
 34 -16 l 1,9,-1
 34 516 l 1,10,-1
 68 550 l 1,11,-1
 433 550 l 1,12,-1
 433 484 l 1,13,-1
 167 484 l 1,0,-1
EndSplineSet
EndChar

StartChar: F
Encoding: 70 70 41
Width: 479
Flags: W
LayerCount: 2
Fore
SplineSet
224 -16 m 1,0,-1
 190 -50 l 1,1,-1
 57 -50 l 1,2,-1
 23 -16 l 1,3,-1
 23 516 l 1,4,-1
 57 550 l 1,5,-1
 423 550 l 1,6,-1
 423 484 l 1,7,-1
 158 484 l 1,8,-1
 158 350 l 1,9,-1
 423 350 l 1,10,-1
 423 284 l 1,11,-1
 224 284 l 1,12,-1
 224 -16 l 1,0,-1
EndSplineSet
EndChar

StartChar: G
Encoding: 71 71 42
Width: 567
Flags: W
LayerCount: 2
Fore
SplineSet
501 309 m 1,0,-1
 501 -15 l 1,1,-1
 466 -50 l 1,2,-1
 68 -50 l 1,3,-1
 33 -15 l 1,4,-1
 33 515 l 1,5,-1
 68 550 l 1,6,-1
 466 550 l 1,7,-1
 501 515 l 1,8,-1
 501 417 l 1,9,-1
 434 417 l 1,10,-1
 434 484 l 1,11,-1
 166 484 l 1,12,-1
 166 354 l 1,13,-1
 231 309 l 1,14,-1
 231 17 l 1,15,-1
 434 17 l 1,16,-1
 434 309 l 1,17,-1
 294 309 l 1,18,-1
 294 354 l 1,19,-1
 444 354 l 1,20,-1
 501 309 l 1,0,-1
EndSplineSet
EndChar

StartChar: H
Encoding: 72 72 43
Width: 572
Flags: W
LayerCount: 2
Fore
SplineSet
173 516 m 1,0,-1
 173 350 l 1,1,-1
 439 350 l 1,2,-1
 439 550 l 1,3,-1
 506 550 l 1,4,-1
 506 -50 l 1,5,-1
 439 -50 l 1,6,-1
 439 284 l 1,7,-1
 238 284 l 1,8,-1
 238 -17 l 1,9,-1
 205 -50 l 1,10,-1
 73 -50 l 1,11,-1
 39 -16 l 1,12,-1
 39 516 l 1,13,-1
 73 550 l 1,14,-1
 139 550 l 1,15,-1
 173 516 l 1,0,-1
EndSplineSet
EndChar

StartChar: I
Encoding: 73 73 44
Width: 275
Flags: W
LayerCount: 2
Fore
SplineSet
73 -50 m 1,0,-1
 39 -16 l 1,1,-1
 38 516 l 1,2,-1
 72 550 l 1,3,-1
 138 550 l 1,4,-1
 172 516 l 1,5,-1
 172 383 l 1,6,-1
 239 316 l 1,7,-1
 239 -16 l 1,8,-1
 205 -50 l 1,9,-1
 73 -50 l 1,0,-1
EndSplineSet
EndChar

StartChar: J
Encoding: 74 74 45
Width: 561
Flags: W
LayerCount: 2
Fore
SplineSet
289 18 m 1,0,-1
 289 516 l 1,1,-1
 323 550 l 1,2,-1
 389 550 l 1,3,-1
 423 516 l 1,4,-1
 423 383 l 1,5,-1
 489 317 l 1,6,-1
 489 -16 l 1,7,-1
 455 -50 l 1,8,-1
 57 -50 l 1,9,-1
 23 -16 l 1,10,-1
 22 150 l 1,11,-1
 90 150 l 1,12,-1
 90 18 l 1,13,-1
 289 18 l 1,0,-1
EndSplineSet
EndChar

StartChar: K
Encoding: 75 75 46
Width: 550
Flags: W
LayerCount: 2
Fore
SplineSet
152 516 m 1,0,-1
 152 350 l 1,1,-1
 353 350 l 1,2,-1
 353 550 l 1,3,-1
 419 550 l 1,4,-1
 419 383 l 1,5,-1
 485 316 l 1,6,-1
 485 -50 l 1,7,-1
 419 -50 l 1,8,-1
 419 284 l 1,9,-1
 219 284 l 1,10,-1
 219 -16 l 1,11,-1
 185 -50 l 1,12,-1
 53 -50 l 1,13,-1
 19 -16 l 1,14,-1
 19 516 l 1,15,-1
 53 550 l 1,16,-1
 118 550 l 1,17,-1
 152 516 l 1,0,-1
EndSplineSet
EndChar

StartChar: L
Encoding: 76 76 47
Width: 484
Flags: W
LayerCount: 2
Fore
SplineSet
423 17 m 1,0,-1
 423 -50 l 1,1,-1
 58 -50 l 1,2,-1
 24 -16 l 1,3,-1
 24 516 l 1,4,-1
 58 550 l 1,5,-1
 124 550 l 1,6,-1
 157 517 l 1,7,-1
 157 383 l 1,8,-1
 223 317 l 1,9,-1
 223 17 l 1,10,-1
 423 17 l 1,0,-1
EndSplineSet
EndChar

StartChar: M
Encoding: 77 77 48
Width: 792
Flags: W
LayerCount: 2
Fore
SplineSet
163 484 m 1,0,-1
 163 382 l 1,1,-1
 228 317 l 1,2,-1
 228 -17 l 1,3,-1
 195 -50 l 1,4,-1
 63 -50 l 1,5,-1
 29 -16 l 1,6,-1
 29 516 l 1,7,-1
 63 550 l 1,8,-1
 362 550 l 1,9,-1
 396 516 l 1,10,-1
 430 550 l 1,11,-1
 661 550 l 1,12,-1
 695 516 l 1,13,-1
 695 -17 l 1,14,-1
 662 -50 l 1,15,-1
 596 -50 l 1,16,-1
 563 -17 l 1,17,-1
 563 484 l 1,18,-1
 429 484 l 1,19,-1
 429 -50 l 1,20,-1
 362 -50 l 1,21,-1
 362 484 l 1,22,-1
 163 484 l 1,0,-1
EndSplineSet
EndChar

StartChar: N
Encoding: 78 78 49
Width: 561
Flags: W
LayerCount: 2
Fore
SplineSet
496 516 m 1,0,-1
 496 -50 l 1,1,-1
 429 -50 l 1,2,-1
 429 484 l 1,3,-1
 163 484 l 1,4,-1
 163 382 l 1,5,-1
 228 317 l 1,6,-1
 228 -17 l 1,7,-1
 195 -50 l 1,8,-1
 62 -50 l 1,9,-1
 29 -17 l 1,10,-1
 29 516 l 1,11,-1
 63 550 l 1,12,-1
 462 550 l 1,13,-1
 496 516 l 1,0,-1
EndSplineSet
EndChar

StartChar: O
Encoding: 79 79 50
Width: 556
Flags: W
LayerCount: 2
Fore
SplineSet
290 484 m 1,0,-1
 91 484 l 1,1,-1
 91 17 l 1,2,-1
 358 17 l 1,3,-1
 358 317 l 1,4,-1
 290 385 l 1,5,-1
 290 484 l 1,0,-1
456 550 m 1,6,-1
 490 516 l 1,7,-1
 490 -16 l 1,8,-1
 456 -50 l 1,9,-1
 58 -50 l 1,10,-1
 24 -16 l 1,11,-1
 24 516 l 1,12,-1
 58 550 l 1,13,-1
 456 550 l 1,6,-1
EndSplineSet
EndChar

StartChar: P
Encoding: 80 80 51
Width: 473
Flags: W
LayerCount: 2
Fore
SplineSet
185 -50 m 1,0,-1
 52 -50 l 1,1,-1
 19 -16 l 1,2,-1
 19 516 l 1,3,-1
 53 550 l 1,4,-1
 385 550 l 1,5,-1
 419 516 l 1,6,-1
 419 318 l 1,7,-1
 385 284 l 1,8,-1
 219 284 l 1,9,-1
 219 -16 l 1,10,-1
 185 -50 l 1,0,-1
353 350 m 1,11,-1
 353 484 l 1,12,-1
 152 484 l 1,13,-1
 152 350 l 1,14,-1
 353 350 l 1,11,-1
EndSplineSet
EndChar

StartChar: Q
Encoding: 81 81 52
Width: 561
Flags: W
LayerCount: 2
Fore
SplineSet
456 550 m 1,0,-1
 490 516 l 1,1,-1
 490 -16 l 1,2,-1
 456 -50 l 1,3,-1
 58 -50 l 1,4,-1
 24 -16 l 1,5,-1
 24 516 l 1,6,-1
 58 550 l 1,7,-1
 456 550 l 1,0,-1
224 17 m 1,8,-1
 224 116 l 1,9,-1
 258 150 l 1,10,-1
 358 150 l 1,11,-1
 358 484 l 1,12,-1
 90 484 l 1,13,-1
 90 17 l 1,14,-1
 224 17 l 1,8,-1
EndSplineSet
EndChar

StartChar: R
Encoding: 82 82 53
Width: 556
Flags: W
LayerCount: 2
Fore
SplineSet
430 284 m 1,0,-1
 228 284 l 1,1,-1
 228 -16 l 1,2,-1
 194 -50 l 1,3,-1
 63 -50 l 1,4,-1
 29 -16 l 1,5,-1
 29 516 l 1,6,-1
 63 550 l 1,7,-1
 395 550 l 1,8,-1
 429 516 l 1,9,-1
 429 382 l 1,10,-1
 495 317 l 1,11,-1
 495 -50 l 1,12,-1
 430 -50 l 1,13,-1
 430 284 l 1,0,-1
363 484 m 1,14,-1
 163 483 l 1,15,-1
 163 350 l 1,16,-1
 363 350 l 1,17,-1
 363 484 l 1,14,-1
EndSplineSet
EndChar

StartChar: S
Encoding: 83 83 54
Width: 550
Flags: W
LayerCount: 2
Fore
SplineSet
85 17 m 1,0,-1
 286 17 l 1,1,-1
 286 284 l 1,2,-1
 53 284 l 1,3,-1
 19 318 l 1,4,-1
 19 516 l 1,5,-1
 53 550 l 1,6,-1
 451 550 l 1,7,-1
 485 516 l 1,8,-1
 485 417 l 1,9,-1
 420 417 l 1,10,-1
 420 484 l 1,11,-1
 153 484 l 1,12,-1
 153 350 l 1,13,-1
 451 350 l 1,14,-1
 485 316 l 1,15,-1
 485 -16 l 1,16,-1
 451 -50 l 1,17,-1
 53 -50 l 1,18,-1
 19 -16 l 1,19,-1
 19 84 l 1,20,-1
 85 84 l 1,21,-1
 85 17 l 1,0,-1
EndSplineSet
EndChar

StartChar: T
Encoding: 84 84 55
Width: 451
Flags: W
LayerCount: 2
Fore
SplineSet
406 484 m 1,0,-1
 274 484 l 1,1,-1
 274 383 l 1,2,-1
 340 317 l 1,3,-1
 340 -16 l 1,4,-1
 306 -50 l 1,5,-1
 175 -50 l 1,6,-1
 141 -16 l 1,7,-1
 141 484 l 1,8,-1
 6 484 l 1,9,-1
 6 550 l 1,10,-1
 406 550 l 1,11,-1
 406 484 l 1,0,-1
EndSplineSet
EndChar

StartChar: U
Encoding: 85 85 56
Width: 561
Flags: W
LayerCount: 2
Fore
SplineSet
495 -16 m 1,0,-1
 461 -50 l 1,1,-1
 63 -50 l 1,2,-1
 29 -16 l 1,3,-1
 29 516 l 1,4,-1
 64 550 l 1,5,-1
 128 550 l 1,6,-1
 162 516 l 1,7,-1
 162 383 l 1,8,-1
 228 317 l 1,9,-1
 228 17 l 1,10,-1
 430 17 l 1,11,-1
 430 550 l 1,12,-1
 495 550 l 1,13,-1
 495 -16 l 1,0,-1
EndSplineSet
EndChar

StartChar: V
Encoding: 86 86 57
Width: 561
Flags: W
LayerCount: 2
Fore
SplineSet
363 184 m 1,0,-1
 430 251 l 1,1,-1
 430 550 l 1,2,-1
 495 550 l 1,3,-1
 495 184 l 1,4,-1
 429 118 l 1,5,-1
 429 -16 l 1,6,-1
 395 -50 l 1,7,-1
 130 -50 l 1,8,-1
 96 -16 l 1,9,-1
 96 117 l 1,10,-1
 29 184 l 1,11,-1
 29 516 l 1,12,-1
 63 550 l 1,13,-1
 194 550 l 1,14,-1
 228 516 l 1,15,-1
 228 17 l 1,16,-1
 363 17 l 1,17,-1
 363 184 l 1,0,-1
EndSplineSet
EndChar

StartChar: W
Encoding: 87 87 58
Width: 770
Flags: W
LayerCount: 2
Fore
SplineSet
651 -50 m 1,0,-1
 53 -50 l 1,1,-1
 19 -16 l 1,2,-1
 19 516 l 1,3,-1
 53 550 l 1,4,-1
 118 550 l 1,5,-1
 152 516 l 1,6,-1
 152 384 l 1,7,-1
 219 317 l 1,8,-1
 219 17 l 1,9,-1
 353 17 l 1,10,-1
 353 550 l 1,11,-1
 420 550 l 1,12,-1
 420 17 l 1,13,-1
 553 17 l 1,14,-1
 553 516 l 1,15,-1
 587 550 l 1,16,-1
 651 550 l 1,17,-1
 685 516 l 1,18,-1
 685 -16 l 1,19,-1
 651 -50 l 1,0,-1
EndSplineSet
EndChar

StartChar: X
Encoding: 88 88 59
Width: 556
Flags: W
LayerCount: 2
Fore
SplineSet
62 317 m 1,0,-1
 29 350 l 1,1,-1
 29 516 l 1,2,-1
 63 550 l 1,3,-1
 129 550 l 1,4,-1
 163 516 l 1,5,-1
 163 350 l 1,6,-1
 429 350 l 1,7,-1
 429 550 l 1,8,-1
 496 550 l 1,9,-1
 496 350 l 1,10,-1
 463 317 l 1,11,-1
 496 284 l 1,12,-1
 496 -50 l 1,13,-1
 429 -50 l 1,14,-1
 429 284 l 1,15,-1
 228 284 l 1,16,-1
 228 -16 l 1,17,-1
 194 -50 l 1,18,-1
 63 -50 l 1,19,-1
 29 -16 l 1,20,-1
 29 284 l 1,21,-1
 62 317 l 1,0,-1
EndSplineSet
EndChar

StartChar: Y
Encoding: 89 89 60
Width: 539
Flags: W
LayerCount: 2
Fore
SplineSet
181 -50 m 1,0,-1
 147 -16 l 1,1,-1
 147 284 l 1,2,-1
 47 284 l 1,3,-1
 13 318 l 1,4,-1
 13 550 l 1,5,-1
 80 550 l 1,6,-1
 80 350 l 1,7,-1
 414 350 l 1,8,-1
 414 550 l 1,9,-1
 479 550 l 1,10,-1
 479 317 l 1,11,-1
 446 284 l 1,12,-1
 346 284 l 1,13,-1
 346 -16 l 1,14,-1
 312 -50 l 1,15,-1
 181 -50 l 1,0,-1
EndSplineSet
EndChar

StartChar: Z
Encoding: 90 90 61
Width: 550
Flags: W
LayerCount: 2
Fore
SplineSet
29 315 m 1,0,-1
 327 484 l 1,1,-1
 95 484 l 1,2,-1
 95 417 l 1,3,-1
 29 417 l 1,4,-1
 29 517 l 1,5,-1
 62 550 l 1,6,-1
 462 550 l 1,7,-1
 496 516 l 1,8,-1
 496 483 l 1,9,-1
 228 315 l 1,10,-1
 228 284 l 1,11,-1
 228 17 l 1,12,-1
 430 17 l 1,13,-1
 430 150 l 1,14,-1
 495 150 l 1,15,-1
 495 -16 l 1,16,-1
 461 -50 l 1,17,-1
 63 -50 l 1,18,-1
 29 -16 l 1,19,-1
 29 315 l 1,0,-1
EndSplineSet
EndChar

StartChar: bracketleft
Encoding: 91 91 62
Width: 341
Flags: W
LayerCount: 2
Fore
SplineSet
99 -183 m 1,0,-1
 66 -150 l 1,1,-1
 66 650 l 1,2,-1
 100 684 l 1,3,-1
 266 684 l 1,4,-1
 266 617 l 1,5,-1
 132 617 l 1,6,-1
 132 -116 l 1,7,-1
 266 -116 l 1,8,-1
 266 -183 l 1,9,-1
 99 -183 l 1,0,-1
EndSplineSet
EndChar

StartChar: backslash
Encoding: 92 92 63
Width: 704
Flags: W
LayerCount: 2
Fore
SplineSet
87 217 m 1,0,-1
 53 251 l 1,1,-1
 53 550 l 1,2,-1
 119 550 l 1,3,-1
 119 284 l 1,4,-1
 552 284 l 1,5,-1
 586 250 l 1,6,-1
 586 -50 l 1,7,-1
 386 -50 l 1,8,-1
 387 217 l 1,9,-1
 87 217 l 1,0,-1
EndSplineSet
EndChar

StartChar: bracketright
Encoding: 93 93 64
Width: 341
Flags: W
LayerCount: 2
Fore
SplineSet
205 684 m 1,0,-1
 239 650 l 1,1,-1
 239 -150 l 1,2,-1
 206 -183 l 1,3,-1
 40 -183 l 1,4,-1
 40 -116 l 1,5,-1
 174 -116 l 1,6,-1
 174 617 l 1,7,-1
 40 617 l 1,8,-1
 40 684 l 1,9,-1
 205 684 l 1,0,-1
EndSplineSet
EndChar

StartChar: asciicircum
Encoding: 94 94 65
Width: 352
Flags: W
LayerCount: 2
Fore
SplineSet
90 417 m 1,0,-1
 24 417 l 1,1,-1
 24 584 l 1,2,-1
 57 617 l 1,3,-1
 257 617 l 1,4,-1
 290 584 l 1,5,-1
 290 417 l 1,6,-1
 225 417 l 1,7,-1
 225 550 l 1,8,-1
 90 550 l 1,9,-1
 90 417 l 1,0,-1
EndSplineSet
EndChar

StartChar: underscore
Encoding: 95 95 66
Width: 550
Flags: W
LayerCount: 2
Fore
SplineSet
533 -50 m 1,0,-1
 0 -50 l 1,1,-1
 0 -16 l 1,2,-1
 533 -16 l 1,3,-1
 533 -50 l 1,0,-1
EndSplineSet
EndChar

StartChar: grave
Encoding: 96 96 67
Width: 341
Flags: W
LayerCount: 2
Fore
SplineSet
185 550 m 1,0,-1
 50 550 l 1,1,-1
 50 617 l 1,2,-1
 216 617 l 1,3,-1
 250 583 l 1,4,-1
 250 417 l 1,5,-1
 185 417 l 1,6,-1
 185 550 l 1,0,-1
EndSplineSet
EndChar

StartChar: a
Encoding: 97 97 68
Width: 462
Flags: W
LayerCount: 2
Fore
SplineSet
280 150 m 1,0,-1
 146 150 l 1,1,-1
 146 17 l 1,2,-1
 280 17 l 1,3,-1
 280 150 l 1,0,-1
47 -50 m 1,4,-1
 13 -16 l 1,5,-1
 13 183 l 1,6,-1
 47 217 l 1,7,-1
 280 217 l 1,8,-1
 280 350 l 1,9,-1
 79 350 l 1,10,-1
 79 284 l 1,11,-1
 13 284 l 1,12,-1
 13 384 l 1,13,-1
 46 417 l 1,14,-1
 313 417 l 1,15,-1
 346 384 l 1,16,-1
 346 249 l 1,17,-1
 412 183 l 1,18,-1
 412 -16 l 1,19,-1
 378 -50 l 1,20,-1
 47 -50 l 1,4,-1
EndSplineSet
EndChar

StartChar: b
Encoding: 98 98 69
Width: 473
Flags: W
LayerCount: 2
Fore
SplineSet
422 -16 m 1,0,-1
 388 -50 l 1,1,-1
 57 -50 l 1,2,-1
 23 -16 l 1,3,-1
 23 516 l 1,4,-1
 57 550 l 1,5,-1
 122 550 l 1,6,-1
 156 516 l 1,7,-1
 156 417 l 1,8,-1
 388 417 l 1,9,-1
 422 383 l 1,10,-1
 422 -16 l 1,0,-1
357 350 m 1,11,-1
 156 350 l 1,12,-1
 156 249 l 1,13,-1
 222 183 l 1,14,-1
 222 17 l 1,15,-1
 357 17 l 1,16,-1
 357 350 l 1,11,-1
EndSplineSet
EndChar

StartChar: c
Encoding: 99 99 70
Width: 470
Flags: W
LayerCount: 2
Fore
SplineSet
418 -16 m 1,0,-1
 384 -50 l 1,1,-1
 53 -50 l 1,2,-1
 19 -16 l 1,3,-1
 19 383 l 1,4,-1
 53 417 l 1,5,-1
 385 417 l 1,6,-1
 419 383 l 1,7,-1
 419 284 l 1,8,-1
 352 284 l 1,9,-1
 352 350 l 1,10,-1
 152 350 l 1,11,-1
 152 250 l 1,12,-1
 218 184 l 1,13,-1
 218 17 l 1,14,-1
 353 17 l 1,15,-1
 353 84 l 1,16,-1
 418 84 l 1,17,-1
 418 -16 l 1,0,-1
EndSplineSet
EndChar

StartChar: d
Encoding: 100 100 71
Width: 479
Flags: W
LayerCount: 2
Fore
SplineSet
14 -16 m 1,0,-1
 48 -50 l 1,1,-1
 380 -50 l 1,2,-1
 414 -16 l 1,3,-1
 414 517 l 1,4,-1
 381 550 l 1,5,-1
 315 550 l 1,6,-1
 281 516 l 1,7,-1
 281 417 l 1,8,-1
 48 417 l 1,9,-1
 14 383 l 1,10,-1
 14 -16 l 1,0,-1
81 350 m 1,11,-1
 281 350 l 1,12,-1
 281 250 l 1,13,-1
 214 183 l 1,14,-1
 214 17 l 1,15,-1
 81 17 l 1,16,-1
 81 350 l 1,11,-1
EndSplineSet
EndChar

StartChar: e
Encoding: 101 101 72
Width: 473
Flags: W
LayerCount: 2
Fore
SplineSet
352 217 m 1,0,-1
 352 350 l 1,1,-1
 152 350 l 1,2,-1
 152 217 l 1,3,-1
 352 217 l 1,0,-1
218 150 m 1,4,-1
 218 17 l 1,5,-1
 352 17 l 1,6,-1
 352 84 l 1,7,-1
 419 84 l 1,8,-1
 419 -16 l 1,9,-1
 385 -50 l 1,10,-1
 53 -50 l 1,11,-1
 19 -16 l 1,12,-1
 19 384 l 1,13,-1
 52 417 l 1,14,-1
 385 417 l 1,15,-1
 418 384 l 1,16,-1
 418 183 l 1,17,-1
 385 150 l 1,18,-1
 218 150 l 1,4,-1
EndSplineSet
EndChar

StartChar: f
Encoding: 102 102 73
Width: 330
Flags: W
LayerCount: 2
Fore
SplineSet
207 350 m 1,0,-1
 207 249 l 1,1,-1
 273 183 l 1,2,-1
 273 -16 l 1,3,-1
 239 -50 l 1,4,-1
 108 -50 l 1,5,-1
 74 -16 l 1,6,-1
 74 350 l 1,7,-1
 6 350 l 1,8,-1
 6 417 l 1,9,-1
 74 417 l 1,10,-1
 74 517 l 1,11,-1
 107 550 l 1,12,-1
 274 550 l 1,13,-1
 274 484 l 1,14,-1
 141 484 l 1,15,-1
 141 417 l 1,16,-1
 274 417 l 1,17,-1
 274 350 l 1,18,-1
 207 350 l 1,0,-1
EndSplineSet
EndChar

StartChar: g
Encoding: 103 103 74
Width: 473
Flags: W
LayerCount: 2
Fore
SplineSet
356 17 m 1,0,-1
 356 350 l 1,1,-1
 156 350 l 1,2,-1
 156 250 l 1,3,-1
 222 184 l 1,4,-1
 222 17 l 1,5,-1
 356 17 l 1,0,-1
356 -183 m 1,6,-1
 356 -50 l 1,7,-1
 57 -50 l 1,8,-1
 23 -16 l 1,9,-1
 23 383 l 1,10,-1
 57 417 l 1,11,-1
 389 417 l 1,12,-1
 422 384 l 1,13,-1
 422 -216 l 1,14,-1
 388 -250 l 1,15,-1
 22 -250 l 1,16,-1
 22 -183 l 1,17,-1
 356 -183 l 1,6,-1
EndSplineSet
EndChar

StartChar: h
Encoding: 104 104 75
Width: 468
Flags: W
LayerCount: 2
Fore
SplineSet
178 -50 m 1,0,-1
 47 -50 l 1,1,-1
 13 -16 l 1,2,-1
 13 516 l 1,3,-1
 47 550 l 1,4,-1
 112 550 l 1,5,-1
 146 516 l 1,6,-1
 147 417 l 1,7,-1
 379 417 l 1,8,-1
 413 382 l 1,9,-1
 413 -50 l 1,10,-1
 345 -50 l 1,11,-1
 345 350 l 1,12,-1
 146 350 l 1,13,-1
 146 250 l 1,14,-1
 212 184 l 1,15,-1
 212 -16 l 1,16,-1
 178 -50 l 1,0,-1
EndSplineSet
EndChar

StartChar: i
Encoding: 105 105 76
Width: 215
Flags: W
LayerCount: 2
Fore
SplineSet
101 417 m 1,0,-1
 101 250 l 1,1,-1
 168 183 l 1,2,-1
 168 -16 l 1,3,-1
 134 -50 l 1,4,-1
 69 -50 l 1,5,-1
 35 -16 l 1,6,-1
 35 417 l 1,7,-1
 101 417 l 1,0,-1
101 470 m 1,8,-1
 35 470 l 1,9,-1
 23 482 l 1,10,-1
 23 528 l 1,11,-1
 35 540 l 1,12,-1
 101 540 l 1,13,-1
 113 528 l 1,14,-1
 113 482 l 1,15,-1
 101 470 l 1,8,-1
EndSplineSet
EndChar

StartChar: j
Encoding: 106 106 77
Width: 215
Flags: W
LayerCount: 2
Fore
SplineSet
107 -83 m 1,0,-1
 40 -16 l 1,1,-1
 40 417 l 1,2,-1
 107 417 l 1,3,-1
 107 250 l 1,4,-1
 173 184 l 1,5,-1
 173 -216 l 1,6,-1
 139 -250 l 1,7,-1
 6 -250 l 1,8,-1
 6 -183 l 1,9,-1
 107 -183 l 1,10,-1
 107 -83 l 1,0,-1
101 470 m 1,11,-1
 35 470 l 1,12,-1
 23 482 l 1,13,-1
 23 528 l 1,14,-1
 35 540 l 1,15,-1
 101 540 l 1,16,-1
 113 528 l 1,17,-1
 113 482 l 1,18,-1
 101 470 l 1,11,-1
EndSplineSet
EndChar

StartChar: k
Encoding: 107 107 78
Width: 462
Flags: W
LayerCount: 2
Fore
SplineSet
213 150 m 1,0,-1
 213 -15 l 1,1,-1
 178 -50 l 1,2,-1
 47 -50 l 1,3,-1
 12 -15 l 1,4,-1
 12 515 l 1,5,-1
 47 550 l 1,6,-1
 112 550 l 1,7,-1
 147 515 l 1,8,-1
 147 217 l 1,9,-1
 279 217 l 1,10,-1
 279 417 l 1,11,-1
 346 417 l 1,12,-1
 346 250 l 1,13,-1
 412 184 l 1,14,-1
 412 -50 l 1,15,-1
 347 -50 l 1,16,-1
 347 150 l 1,17,-1
 213 150 l 1,0,-1
EndSplineSet
EndChar

StartChar: l
Encoding: 108 108 79
Width: 248
Flags: W
LayerCount: 2
Fore
SplineSet
47 -50 m 1,0,-1
 13 -16 l 1,1,-1
 13 516 l 1,2,-1
 47 550 l 1,3,-1
 112 550 l 1,4,-1
 146 516 l 1,5,-1
 146 250 l 1,6,-1
 212 184 l 1,7,-1
 212 -16 l 1,8,-1
 178 -50 l 1,9,-1
 47 -50 l 1,0,-1
EndSplineSet
EndChar

StartChar: m
Encoding: 109 109 80
Width: 743
Flags: W
LayerCount: 2
Fore
SplineSet
42 -50 m 1,0,-1
 8 -16 l 1,1,-1
 8 383 l 1,2,-1
 42 417 l 1,3,-1
 640 417 l 1,4,-1
 674 383 l 1,5,-1
 674 -50 l 1,6,-1
 608 -50 l 1,7,-1
 608 350 l 1,8,-1
 408 350 l 1,9,-1
 408 250 l 1,10,-1
 474 184 l 1,11,-1
 474 -16 l 1,12,-1
 440 -50 l 1,13,-1
 376 -50 l 1,14,-1
 342 -16 l 1,15,-1
 341 350 l 1,16,-1
 141 350 l 1,17,-1
 141 250 l 1,18,-1
 207 184 l 1,19,-1
 207 -16 l 1,20,-1
 173 -50 l 1,21,-1
 42 -50 l 1,0,-1
EndSplineSet
EndChar

StartChar: n
Encoding: 110 110 81
Width: 462
Flags: W
LayerCount: 2
Fore
SplineSet
346 350 m 1,0,-1
 146 350 l 1,1,-1
 146 249 l 1,2,-1
 212 183 l 1,3,-1
 212 -16 l 1,4,-1
 178 -50 l 1,5,-1
 47 -50 l 1,6,-1
 13 -16 l 1,7,-1
 13 383 l 1,8,-1
 47 417 l 1,9,-1
 378 417 l 1,10,-1
 412 383 l 1,11,-1
 413 -50 l 1,12,-1
 346 -50 l 1,13,-1
 346 350 l 1,0,-1
EndSplineSet
EndChar

StartChar: o
Encoding: 111 111 82
Width: 462
Flags: W
LayerCount: 2
Fore
SplineSet
46 -50 m 1,0,-1
 12 -16 l 1,1,-1
 12 383 l 1,2,-1
 46 417 l 1,3,-1
 377 417 l 1,4,-1
 411 383 l 1,5,-1
 411 -16 l 1,6,-1
 377 -50 l 1,7,-1
 46 -50 l 1,0,-1
345 350 m 1,8,-1
 146 350 l 1,9,-1
 146 249 l 1,10,-1
 211 184 l 1,11,-1
 211 17 l 1,12,-1
 345 17 l 1,13,-1
 345 350 l 1,8,-1
EndSplineSet
EndChar

StartChar: p
Encoding: 112 112 83
Width: 468
Flags: W
LayerCount: 2
Fore
SplineSet
18 -250 m 1,0,-1
 86 -250 l 1,1,-1
 86 -50 l 1,2,-1
 384 -50 l 1,3,-1
 419 -15 l 1,4,-1
 419 383 l 1,5,-1
 385 417 l 1,6,-1
 52 417 l 1,7,-1
 18 383 l 1,8,-1
 18 -250 l 1,0,-1
352 17 m 1,9,-1
 219 17 l 1,10,-1
 219 183 l 1,11,-1
 152 250 l 1,12,-1
 152 350 l 1,13,-1
 352 350 l 1,14,-1
 352 17 l 1,9,-1
EndSplineSet
EndChar

StartChar: q
Encoding: 113 113 84
Width: 468
Flags: W
LayerCount: 2
Fore
SplineSet
413 -250 m 1,0,-1
 347 -250 l 1,1,-1
 347 -50 l 1,2,-1
 47 -50 l 1,3,-1
 12 -15 l 1,4,-1
 12 382 l 1,5,-1
 47 417 l 1,6,-1
 378 417 l 1,7,-1
 413 382 l 1,8,-1
 413 -250 l 1,0,-1
212 183 m 1,9,-1
 212 17 l 1,10,-1
 346 17 l 1,11,-1
 346 350 l 1,12,-1
 146 350 l 1,13,-1
 146 249 l 1,14,-1
 212 183 l 1,9,-1
EndSplineSet
EndChar

StartChar: r
Encoding: 114 114 85
Width: 380
Flags: W
LayerCount: 2
Fore
SplineSet
47 -50 m 1,0,-1
 13 -16 l 1,1,-1
 13 383 l 1,2,-1
 47 417 l 1,3,-1
 346 417 l 1,4,-1
 346 350 l 1,5,-1
 146 350 l 1,6,-1
 146 250 l 1,7,-1
 212 184 l 1,8,-1
 212 -16 l 1,9,-1
 178 -50 l 1,10,-1
 47 -50 l 1,0,-1
EndSplineSet
EndChar

StartChar: s
Encoding: 115 115 86
Width: 473
Flags: W
LayerCount: 2
Fore
SplineSet
418 -16 m 1,0,-1
 384 -50 l 1,1,-1
 52 -50 l 1,2,-1
 18 -16 l 1,3,-1
 18 84 l 1,4,-1
 85 84 l 1,5,-1
 85 17 l 1,6,-1
 217 17 l 1,7,-1
 217 150 l 1,8,-1
 52 150 l 1,9,-1
 18 184 l 1,10,-1
 18 383 l 1,11,-1
 52 417 l 1,12,-1
 384 417 l 1,13,-1
 418 383 l 1,14,-1
 418 284 l 1,15,-1
 352 284 l 1,16,-1
 352 350 l 1,17,-1
 152 350 l 1,18,-1
 152 217 l 1,19,-1
 384 217 l 1,20,-1
 418 183 l 1,21,-1
 418 -16 l 1,0,-1
EndSplineSet
EndChar

StartChar: t
Encoding: 116 116 87
Width: 314
Flags: W
LayerCount: 2
Fore
SplineSet
103 -50 m 1,0,-1
 69 -16 l 1,1,-1
 69 350 l 1,2,-1
 1 350 l 1,3,-1
 1 417 l 1,4,-1
 69 417 l 1,5,-1
 69 550 l 1,6,-1
 136 550 l 1,7,-1
 136 417 l 1,8,-1
 269 417 l 1,9,-1
 269 350 l 1,10,-1
 202 350 l 1,11,-1
 202 250 l 1,12,-1
 269 183 l 1,13,-1
 268 -16 l 1,14,-1
 234 -50 l 1,15,-1
 103 -50 l 1,0,-1
EndSplineSet
EndChar

StartChar: u
Encoding: 117 117 88
Width: 468
Flags: W
LayerCount: 2
Fore
SplineSet
384 -50 m 1,0,-1
 52 -50 l 1,1,-1
 18 -16 l 1,2,-1
 18 383 l 1,3,-1
 52 417 l 1,4,-1
 117 417 l 1,5,-1
 151 383 l 1,6,-1
 151 250 l 1,7,-1
 218 183 l 1,8,-1
 218 17 l 1,9,-1
 351 17 l 1,10,-1
 351 417 l 1,11,-1
 418 417 l 1,12,-1
 418 -16 l 1,13,-1
 384 -50 l 1,0,-1
EndSplineSet
EndChar

StartChar: v
Encoding: 118 118 89
Width: 473
Flags: W
LayerCount: 2
Fore
SplineSet
312 -50 m 1,0,-1
 114 -50 l 1,1,-1
 80 -16 l 1,2,-1
 80 116 l 1,3,-1
 12 184 l 1,4,-1
 12 383 l 1,5,-1
 46 417 l 1,6,-1
 179 417 l 1,7,-1
 213 383 l 1,8,-1
 213 17 l 1,9,-1
 280 17 l 1,10,-1
 280 116 l 1,11,-1
 347 183 l 1,12,-1
 347 417 l 1,13,-1
 412 417 l 1,14,-1
 412 116 l 1,15,-1
 346 50 l 1,16,-1
 346 -16 l 1,17,-1
 312 -50 l 1,0,-1
EndSplineSet
EndChar

StartChar: w
Encoding: 119 119 90
Width: 759
Flags: W
LayerCount: 2
Fore
SplineSet
679 -16 m 1,0,-1
 645 -50 l 1,1,-1
 47 -50 l 1,2,-1
 13 -16 l 1,3,-1
 13 383 l 1,4,-1
 47 417 l 1,5,-1
 112 417 l 1,6,-1
 146 383 l 1,7,-1
 146 250 l 1,8,-1
 213 183 l 1,9,-1
 213 17 l 1,10,-1
 347 17 l 1,11,-1
 347 417 l 1,12,-1
 413 417 l 1,13,-1
 413 250 l 1,14,-1
 479 184 l 1,15,-1
 479 17 l 1,16,-1
 613 17 l 1,17,-1
 613 417 l 1,18,-1
 679 417 l 1,19,-1
 679 -16 l 1,0,-1
EndSplineSet
EndChar

StartChar: x
Encoding: 120 120 91
Width: 473
Flags: W
LayerCount: 2
Fore
SplineSet
13 150 m 1,0,-1
 46 183 l 1,1,-1
 13 216 l 1,2,-1
 12 382 l 1,3,-1
 47 417 l 1,4,-1
 112 417 l 1,5,-1
 146 383 l 1,6,-1
 146 217 l 1,7,-1
 346 217 l 1,8,-1
 346 417 l 1,9,-1
 413 417 l 1,10,-1
 413 216 l 1,11,-1
 380 183 l 1,12,-1
 413 150 l 1,13,-1
 413 -50 l 1,14,-1
 347 -50 l 1,15,-1
 347 150 l 1,16,-1
 213 150 l 1,17,-1
 213 -16 l 1,18,-1
 179 -50 l 1,19,-1
 47 -50 l 1,20,-1
 13 -16 l 1,21,-1
 13 150 l 1,0,-1
EndSplineSet
EndChar

StartChar: y
Encoding: 121 121 92
Width: 468
Flags: W
LayerCount: 2
Fore
SplineSet
413 -216 m 1,0,-1
 379 -250 l 1,1,-1
 12 -250 l 1,2,-1
 12 -183 l 1,3,-1
 346 -183 l 1,4,-1
 346 -50 l 1,5,-1
 46 -50 l 1,6,-1
 12 -16 l 1,7,-1
 12 383 l 1,8,-1
 46 417 l 1,9,-1
 179 417 l 1,10,-1
 213 383 l 1,11,-1
 213 182 l 1,12,-1
 146 115 l 1,13,-1
 146 17 l 1,14,-1
 346 17 l 1,15,-1
 346 417 l 1,16,-1
 413 417 l 1,17,-1
 413 -216 l 1,0,-1
EndSplineSet
EndChar

StartChar: z
Encoding: 122 122 93
Width: 462
Flags: W
LayerCount: 2
Fore
SplineSet
213 183 m 1,0,-1
 213 150 l 1,1,-1
 213 17 l 1,2,-1
 346 17 l 1,3,-1
 346 84 l 1,4,-1
 413 84 l 1,5,-1
 413 -16 l 1,6,-1
 379 -50 l 1,7,-1
 46 -50 l 1,8,-1
 12 -16 l 1,9,-1
 12 183 l 1,10,-1
 267 350 l 1,11,-1
 80 350 l 1,12,-1
 80 284 l 1,13,-1
 12 284 l 1,14,-1
 12 383 l 1,15,-1
 46 417 l 1,16,-1
 379 417 l 1,17,-1
 413 383 l 1,18,-1
 413 327 l 1,19,-1
 213 183 l 1,0,-1
EndSplineSet
EndChar

StartChar: braceleft
Encoding: 123 123 94
Width: 374
Flags: W
LayerCount: 2
Fore
SplineSet
245 584 m 1,0,-1
 245 -83 l 1,1,-1
 312 -83 l 1,2,-1
 312 -117 l 1,3,-1
 146 -117 l 1,4,-1
 111 -82 l 1,5,-1
 111 216 l 1,6,-1
 45 216 l 1,7,-1
 45 284 l 1,8,-1
 111 284 l 1,9,-1
 111 582 l 1,10,-1
 146 617 l 1,11,-1
 312 617 l 1,12,-1
 312 584 l 1,13,-1
 245 584 l 1,0,-1
EndSplineSet
EndChar

StartChar: bar
Encoding: 124 124 95
Width: 341
Flags: W
LayerCount: 2
Fore
SplineSet
195 -117 m 1,0,-1
 128 -117 l 1,1,-1
 127 617 l 1,2,-1
 195 617 l 1,3,-1
 195 -117 l 1,0,-1
EndSplineSet
EndChar

StartChar: braceright
Encoding: 125 125 96
Width: 374
Flags: W
LayerCount: 2
Fore
SplineSet
95 584 m 1,0,-1
 95 -83 l 1,1,-1
 28 -83 l 1,2,-1
 28 -117 l 1,3,-1
 195 -117 l 1,4,-1
 229 -83 l 1,5,-1
 229 216 l 1,6,-1
 295 216 l 1,7,-1
 295 284 l 1,8,-1
 229 284 l 1,9,-1
 229 582 l 1,10,-1
 195 616 l 1,11,-1
 28 616 l 1,12,-1
 28 584 l 1,13,-1
 95 584 l 1,0,-1
EndSplineSet
EndChar

StartChar: asciitilde
Encoding: 126 126 97
Width: 506
Flags: W
LayerCount: 2
Fore
SplineSet
103 416 m 1,0,-1
 34 416 l 1,1,-1
 34 516 l 1,2,-1
 68 550 l 1,3,-1
 269 550 l 1,4,-1
 303 516 l 1,5,-1
 303 484 l 1,6,-1
 368 484 l 1,7,-1
 368 550 l 1,8,-1
 435 550 l 1,9,-1
 435 450 l 1,10,-1
 401 416 l 1,11,-1
 201 416 l 1,12,-1
 167 450 l 1,13,-1
 167 483 l 1,14,-1
 103 483 l 1,15,-1
 103 416 l 1,0,-1
EndSplineSet
EndChar

StartChar: Adieresis
Encoding: 196 196 98
Width: 550
Flags: W
LayerCount: 2
Fore
SplineSet
45 -50 m 1,0,-1
 11 -16 l 1,1,-1
 11 317 l 1,2,-1
 78 384 l 1,3,-1
 78 516 l 1,4,-1
 112 550 l 1,5,-1
 377 550 l 1,6,-1
 411 516 l 1,7,-1
 411 383 l 1,8,-1
 478 317 l 1,9,-1
 478 -50 l 1,10,-1
 411 -50 l 1,11,-1
 411 284 l 1,12,-1
 210 284 l 1,13,-1
 210 -16 l 1,14,-1
 176 -50 l 1,15,-1
 45 -50 l 1,0,-1
211 484 m 1,16,-1
 211 350 l 1,17,-1
 344 350 l 1,18,-1
 344 484 l 1,19,-1
 211 484 l 1,16,-1
176 615 m 1,20,-1
 79 615 l 1,21,-1
 44 650 l 1,22,-1
 44 715 l 1,23,-1
 79 750 l 1,24,-1
 176 750 l 1,25,-1
 211 715 l 1,26,-1
 211 650 l 1,27,-1
 176 615 l 1,20,-1
412 617 m 1,28,-1
 312 617 l 1,29,-1
 278 651 l 1,30,-1
 278 716 l 1,31,-1
 312 750 l 1,32,-1
 411 750 l 1,33,-1
 445 716 l 1,34,-1
 445 650 l 1,35,-1
 412 617 l 1,28,-1
EndSplineSet
EndChar

StartChar: Aring
Encoding: 197 197 99
Width: 550
Flags: W
LayerCount: 2
Fore
SplineSet
57 -50 m 1,0,-1
 23 -16 l 1,1,-1
 23 316 l 1,2,-1
 89 382 l 1,3,-1
 89 483 l 1,4,-1
 123 517 l 1,5,-1
 389 517 l 1,6,-1
 423 483 l 1,7,-1
 423 382 l 1,8,-1
 489 316 l 1,9,-1
 490 -50 l 1,10,-1
 424 -50 l 1,11,-1
 424 284 l 1,12,-1
 222 284 l 1,13,-1
 222 -16 l 1,14,-1
 188 -50 l 1,15,-1
 57 -50 l 1,0,-1
223 450 m 1,16,-1
 223 350 l 1,17,-1
 356 350 l 1,18,-1
 356 450 l 1,19,-1
 223 450 l 1,16,-1
322 550 m 1,20,-1
 191 550 l 1,21,-1
 156 585 l 1,22,-1
 156 715 l 1,23,-1
 191 750 l 1,24,-1
 322 750 l 1,25,-1
 357 715 l 1,26,-1
 357 585 l 1,27,-1
 322 550 l 1,20,-1
290 684 m 1,28,-1
 222 684 l 1,29,-1
 222 617 l 1,30,-1
 290 617 l 1,31,-1
 290 684 l 1,28,-1
EndSplineSet
EndChar

StartChar: Ccedilla
Encoding: 199 199 100
Width: 578
Flags: W
LayerCount: 2
Fore
SplineSet
58 -50 m 1,0,-1
 24 -16 l 1,1,-1
 24 516 l 1,2,-1
 58 550 l 1,3,-1
 457 550 l 1,4,-1
 491 516 l 1,5,-1
 491 417 l 1,6,-1
 424 417 l 1,7,-1
 424 484 l 1,8,-1
 157 484 l 1,9,-1
 157 383 l 1,10,-1
 223 317 l 1,11,-1
 223 17 l 1,12,-1
 425 17 l 1,13,-1
 425 84 l 1,14,-1
 490 84 l 1,15,-1
 490 -16 l 1,16,-1
 456 -50 l 1,17,-1
 358 -50 l 1,18,-1
 358 -216 l 1,19,-1
 324 -250 l 1,20,-1
 157 -250 l 1,21,-1
 157 -183 l 1,22,-1
 290 -183 l 1,23,-1
 290 -50 l 1,24,-1
 58 -50 l 1,0,-1
EndSplineSet
EndChar

StartChar: Eacute
Encoding: 201 201 101
Width: 506
Flags: W
LayerCount: 2
Fore
SplineSet
161 484 m 1,0,-1
 161 350 l 1,1,-1
 427 350 l 1,2,-1
 427 284 l 1,3,-1
 228 284 l 1,4,-1
 228 17 l 1,5,-1
 427 17 l 1,6,-1
 427 -50 l 1,7,-1
 62 -50 l 1,8,-1
 28 -16 l 1,9,-1
 28 516 l 1,10,-1
 62 550 l 1,11,-1
 427 550 l 1,12,-1
 427 484 l 1,13,-1
 161 484 l 1,0,-1
228 683 m 1,14,-1
 228 617 l 1,15,-1
 161 617 l 1,16,-1
 161 716 l 1,17,-1
 195 750 l 1,18,-1
 362 750 l 1,19,-1
 362 683 l 1,20,-1
 228 683 l 1,14,-1
EndSplineSet
EndChar

StartChar: Ntilde
Encoding: 209 209 102
Width: 561
Flags: W
LayerCount: 2
Fore
SplineSet
489 515 m 1,0,-1
 489 -50 l 1,1,-1
 420 -50 l 1,2,-1
 420 484 l 1,3,-1
 154 484 l 1,4,-1
 154 355 l 1,5,-1
 220 310 l 1,6,-1
 220 -15 l 1,7,-1
 186 -50 l 1,8,-1
 56 -50 l 1,9,-1
 22 -16 l 1,10,-1
 22 515 l 1,11,-1
 56 550 l 1,12,-1
 454 550 l 1,13,-1
 489 515 l 1,0,-1
156 683 m 1,14,-1
 156 617 l 1,15,-1
 89 617 l 1,16,-1
 89 716 l 1,17,-1
 123 750 l 1,18,-1
 323 750 l 1,19,-1
 356 717 l 1,20,-1
 356 684 l 1,21,-1
 423 684 l 1,22,-1
 423 750 l 1,23,-1
 489 750 l 1,24,-1
 489 651 l 1,25,-1
 455 617 l 1,26,-1
 256 617 l 1,27,-1
 222 651 l 1,28,-1
 222 683 l 1,29,-1
 156 683 l 1,14,-1
EndSplineSet
EndChar

StartChar: Odieresis
Encoding: 214 214 103
Width: 556
Flags: W
LayerCount: 2
Fore
SplineSet
285 484 m 1,0,-1
 86 484 l 1,1,-1
 86 18 l 1,2,-1
 351 18 l 1,3,-1
 351 315 l 1,4,-1
 285 382 l 1,5,-1
 285 484 l 1,0,-1
450 550 m 1,6,-1
 485 515 l 1,7,-1
 486 -15 l 1,8,-1
 450 -50 l 1,9,-1
 53 -50 l 1,10,-1
 17 -15 l 1,11,-1
 17 515 l 1,12,-1
 53 550 l 1,13,-1
 450 550 l 1,6,-1
185 617 m 1,14,-1
 86 617 l 1,15,-1
 52 651 l 1,16,-1
 52 717 l 1,17,-1
 85 750 l 1,18,-1
 185 750 l 1,19,-1
 218 717 l 1,20,-1
 218 650 l 1,21,-1
 185 617 l 1,14,-1
418 617 m 1,22,-1
 321 617 l 1,23,-1
 286 652 l 1,24,-1
 286 717 l 1,25,-1
 319 750 l 1,26,-1
 418 750 l 1,27,-1
 453 715 l 1,28,-1
 453 652 l 1,29,-1
 418 617 l 1,22,-1
EndSplineSet
EndChar

StartChar: Udieresis
Encoding: 220 220 104
Width: 561
Flags: W
LayerCount: 2
Fore
SplineSet
490 -15 m 1,0,-1
 455 -50 l 1,1,-1
 57 -50 l 1,2,-1
 22 -15 l 1,3,-1
 22 515 l 1,4,-1
 57 550 l 1,5,-1
 122 550 l 1,6,-1
 157 515 l 1,7,-1
 157 350 l 1,8,-1
 223 315 l 1,9,-1
 223 17 l 1,10,-1
 423 17 l 1,11,-1
 423 550 l 1,12,-1
 490 550 l 1,13,-1
 490 -15 l 1,0,-1
222 651 m 1,14,-1
 188 617 l 1,15,-1
 91 617 l 1,16,-1
 57 651 l 1,17,-1
 57 716 l 1,18,-1
 91 750 l 1,19,-1
 188 750 l 1,20,-1
 222 716 l 1,21,-1
 222 651 l 1,14,-1
290 651 m 1,22,-1
 290 716 l 1,23,-1
 324 750 l 1,24,-1
 422 750 l 1,25,-1
 456 716 l 1,26,-1
 456 651 l 1,27,-1
 422 617 l 1,28,-1
 324 617 l 1,29,-1
 290 651 l 1,22,-1
EndSplineSet
EndChar

StartChar: aacute
Encoding: 225 225 105
Width: 462
Flags: W
LayerCount: 2
Fore
SplineSet
214 484 m 1,0,-1
 147 484 l 1,1,-1
 147 583 l 1,2,-1
 181 617 l 1,3,-1
 347 617 l 1,4,-1
 347 550 l 1,5,-1
 214 550 l 1,6,-1
 214 484 l 1,0,-1
281 150 m 1,7,-1
 147 150 l 1,8,-1
 147 17 l 1,9,-1
 281 17 l 1,10,-1
 281 150 l 1,7,-1
48 -50 m 1,11,-1
 14 -16 l 1,12,-1
 14 183 l 1,13,-1
 48 217 l 1,14,-1
 281 217 l 1,15,-1
 281 350 l 1,16,-1
 80 350 l 1,17,-1
 80 284 l 1,18,-1
 14 284 l 1,19,-1
 14 384 l 1,20,-1
 47 417 l 1,21,-1
 314 417 l 1,22,-1
 347 384 l 1,23,-1
 347 249 l 1,24,-1
 413 183 l 1,25,-1
 413 -16 l 1,26,-1
 379 -50 l 1,27,-1
 48 -50 l 1,11,-1
EndSplineSet
EndChar

StartChar: agrave
Encoding: 224 224 106
Width: 462
Flags: W
LayerCount: 2
Fore
SplineSet
274 583 m 1,0,-1
 274 484 l 1,1,-1
 207 484 l 1,2,-1
 207 550 l 1,3,-1
 73 550 l 1,4,-1
 73 617 l 1,5,-1
 240 617 l 1,6,-1
 274 583 l 1,0,-1
274 150 m 1,7,-1
 140 150 l 1,8,-1
 140 17 l 1,9,-1
 274 17 l 1,10,-1
 274 150 l 1,7,-1
41 -50 m 1,11,-1
 7 -16 l 1,12,-1
 7 183 l 1,13,-1
 41 217 l 1,14,-1
 274 217 l 1,15,-1
 274 350 l 1,16,-1
 73 350 l 1,17,-1
 73 284 l 1,18,-1
 7 284 l 1,19,-1
 7 384 l 1,20,-1
 40 417 l 1,21,-1
 307 417 l 1,22,-1
 340 384 l 1,23,-1
 340 249 l 1,24,-1
 406 183 l 1,25,-1
 406 -16 l 1,26,-1
 372 -50 l 1,27,-1
 41 -50 l 1,11,-1
EndSplineSet
EndChar

StartChar: acircumflex
Encoding: 226 226 107
Width: 462
Flags: W
LayerCount: 2
Fore
SplineSet
141 550 m 1,0,-1
 141 484 l 1,1,-1
 73 484 l 1,2,-1
 73 583 l 1,3,-1
 107 617 l 1,4,-1
 306 617 l 1,5,-1
 340 583 l 1,6,-1
 340 484 l 1,7,-1
 273 484 l 1,8,-1
 273 550 l 1,9,-1
 141 550 l 1,0,-1
274 150 m 1,10,-1
 140 150 l 1,11,-1
 140 17 l 1,12,-1
 274 17 l 1,13,-1
 274 150 l 1,10,-1
41 -50 m 1,14,-1
 7 -16 l 1,15,-1
 7 183 l 1,16,-1
 41 217 l 1,17,-1
 274 217 l 1,18,-1
 274 350 l 1,19,-1
 73 350 l 1,20,-1
 73 284 l 1,21,-1
 7 284 l 1,22,-1
 7 384 l 1,23,-1
 40 417 l 1,24,-1
 307 417 l 1,25,-1
 340 384 l 1,26,-1
 340 249 l 1,27,-1
 406 183 l 1,28,-1
 406 -16 l 1,29,-1
 372 -50 l 1,30,-1
 41 -50 l 1,14,-1
EndSplineSet
EndChar

StartChar: adieresis
Encoding: 228 228 108
Width: 462
Flags: W
LayerCount: 2
Fore
SplineSet
141 484 m 1,0,-1
 39 484 l 1,1,-1
 6 517 l 1,2,-1
 6 584 l 1,3,-1
 41 617 l 1,4,-1
 141 617 l 1,5,-1
 174 584 l 1,6,-1
 174 517 l 1,7,-1
 141 484 l 1,0,-1
373 484 m 1,8,-1
 274 484 l 1,9,-1
 241 517 l 1,10,-1
 241 584 l 1,11,-1
 274 617 l 1,12,-1
 373 617 l 1,13,-1
 406 584 l 1,14,-1
 406 517 l 1,15,-1
 373 484 l 1,8,-1
274 150 m 1,16,-1
 140 150 l 1,17,-1
 140 17 l 1,18,-1
 274 17 l 1,19,-1
 274 150 l 1,16,-1
41 -50 m 1,20,-1
 7 -16 l 1,21,-1
 7 183 l 1,22,-1
 41 217 l 1,23,-1
 274 217 l 1,24,-1
 274 350 l 1,25,-1
 73 350 l 1,26,-1
 73 284 l 1,27,-1
 7 284 l 1,28,-1
 7 384 l 1,29,-1
 40 417 l 1,30,-1
 307 417 l 1,31,-1
 340 384 l 1,32,-1
 340 249 l 1,33,-1
 406 183 l 1,34,-1
 406 -16 l 1,35,-1
 372 -50 l 1,36,-1
 41 -50 l 1,20,-1
EndSplineSet
EndChar

StartChar: atilde
Encoding: 227 227 109
Width: 462
Flags: W
LayerCount: 2
Fore
SplineSet
74 484 m 1,0,-1
 7 484 l 1,1,-1
 7 583 l 1,2,-1
 41 617 l 1,3,-1
 241 617 l 1,4,-1
 274 584 l 1,5,-1
 274 550 l 1,6,-1
 341 550 l 1,7,-1
 341 617 l 1,8,-1
 407 617 l 1,9,-1
 407 517 l 1,10,-1
 374 484 l 1,11,-1
 174 484 l 1,12,-1
 141 517 l 1,13,-1
 141 550 l 1,14,-1
 74 550 l 1,15,-1
 74 484 l 1,0,-1
274 150 m 1,16,-1
 140 150 l 1,17,-1
 140 17 l 1,18,-1
 274 17 l 1,19,-1
 274 150 l 1,16,-1
41 -50 m 1,20,-1
 7 -16 l 1,21,-1
 7 183 l 1,22,-1
 41 217 l 1,23,-1
 274 217 l 1,24,-1
 274 350 l 1,25,-1
 73 350 l 1,26,-1
 73 284 l 1,27,-1
 7 284 l 1,28,-1
 7 384 l 1,29,-1
 40 417 l 1,30,-1
 307 417 l 1,31,-1
 340 384 l 1,32,-1
 340 249 l 1,33,-1
 406 183 l 1,34,-1
 406 -16 l 1,35,-1
 372 -50 l 1,36,-1
 41 -50 l 1,20,-1
EndSplineSet
EndChar

StartChar: aring
Encoding: 229 229 110
Width: 462
Flags: W
LayerCount: 2
Fore
SplineSet
278 483 m 1,0,-1
 147 483 l 1,1,-1
 113 517 l 1,2,-1
 113 650 l 1,3,-1
 147 684 l 1,4,-1
 278 684 l 1,5,-1
 312 650 l 1,6,-1
 312 517 l 1,7,-1
 278 483 l 1,0,-1
247 616 m 1,8,-1
 180 616 l 1,9,-1
 180 550 l 1,10,-1
 247 550 l 1,11,-1
 247 616 l 1,8,-1
280 150 m 1,12,-1
 146 150 l 1,13,-1
 146 17 l 1,14,-1
 280 17 l 1,15,-1
 280 150 l 1,12,-1
47 -50 m 1,16,-1
 13 -16 l 1,17,-1
 13 183 l 1,18,-1
 47 217 l 1,19,-1
 280 217 l 1,20,-1
 280 350 l 1,21,-1
 79 350 l 1,22,-1
 79 284 l 1,23,-1
 13 284 l 1,24,-1
 13 384 l 1,25,-1
 46 417 l 1,26,-1
 313 417 l 1,27,-1
 346 384 l 1,28,-1
 346 249 l 1,29,-1
 412 183 l 1,30,-1
 412 -16 l 1,31,-1
 378 -50 l 1,32,-1
 47 -50 l 1,16,-1
EndSplineSet
EndChar

StartChar: ccedilla
Encoding: 231 231 111
Width: 476
Flags: W
LayerCount: 2
Fore
SplineSet
56 -50 m 1,0,-1
 23 -17 l 1,1,-1
 23 374 l 1,2,-1
 52 423 l 1,3,-1
 391 420 l 1,4,-1
 424 386 l 1,5,-1
 424 283 l 1,6,-1
 357 283 l 1,7,-1
 357 350 l 1,8,-1
 158 350 l 1,9,-1
 158 249 l 1,10,-1
 224 183 l 1,11,-1
 224 17 l 1,12,-1
 357 17 l 1,13,-1
 357 84 l 1,14,-1
 423 84 l 1,15,-1
 423 -17 l 1,16,-1
 390 -50 l 1,17,-1
 290 -50 l 1,18,-1
 290 -216 l 1,19,-1
 256 -250 l 1,20,-1
 157 -250 l 1,21,-1
 157 -183 l 1,22,-1
 224 -183 l 1,23,-1
 224 -50 l 1,24,-1
 56 -50 l 1,0,-1
EndSplineSet
EndChar

StartChar: eacute
Encoding: 233 233 112
Width: 473
Flags: W
LayerCount: 2
Fore
SplineSet
214 484 m 1,0,-1
 147 484 l 1,1,-1
 147 583 l 1,2,-1
 181 617 l 1,3,-1
 348 617 l 1,4,-1
 348 550 l 1,5,-1
 214 550 l 1,6,-1
 214 484 l 1,0,-1
347 217 m 1,7,-1
 347 350 l 1,8,-1
 147 350 l 1,9,-1
 147 217 l 1,10,-1
 347 217 l 1,7,-1
213 150 m 1,11,-1
 213 17 l 1,12,-1
 347 17 l 1,13,-1
 347 84 l 1,14,-1
 414 84 l 1,15,-1
 414 -16 l 1,16,-1
 380 -50 l 1,17,-1
 48 -50 l 1,18,-1
 14 -16 l 1,19,-1
 14 384 l 1,20,-1
 47 417 l 1,21,-1
 380 417 l 1,22,-1
 413 384 l 1,23,-1
 413 183 l 1,24,-1
 380 150 l 1,25,-1
 213 150 l 1,11,-1
EndSplineSet
EndChar

StartChar: egrave
Encoding: 232 232 113
Width: 473
Flags: W
LayerCount: 2
Fore
SplineSet
278 484 m 1,0,-1
 210 484 l 1,1,-1
 210 550 l 1,2,-1
 78 550 l 1,3,-1
 78 617 l 1,4,-1
 245 617 l 1,5,-1
 278 584 l 1,6,-1
 278 484 l 1,0,-1
344 217 m 1,7,-1
 344 350 l 1,8,-1
 144 350 l 1,9,-1
 144 217 l 1,10,-1
 344 217 l 1,7,-1
210 150 m 1,11,-1
 210 17 l 1,12,-1
 344 17 l 1,13,-1
 344 84 l 1,14,-1
 411 84 l 1,15,-1
 411 -16 l 1,16,-1
 377 -50 l 1,17,-1
 45 -50 l 1,18,-1
 11 -16 l 1,19,-1
 11 384 l 1,20,-1
 44 417 l 1,21,-1
 377 417 l 1,22,-1
 410 384 l 1,23,-1
 410 183 l 1,24,-1
 377 150 l 1,25,-1
 210 150 l 1,11,-1
EndSplineSet
EndChar

StartChar: ecircumflex
Encoding: 234 234 114
Width: 473
Flags: W
LayerCount: 2
Fore
SplineSet
148 484 m 1,0,-1
 81 484 l 1,1,-1
 81 583 l 1,2,-1
 115 617 l 1,3,-1
 314 617 l 1,4,-1
 348 583 l 1,5,-1
 348 484 l 1,6,-1
 281 484 l 1,7,-1
 281 550 l 1,8,-1
 148 550 l 1,9,-1
 148 484 l 1,0,-1
347 217 m 1,10,-1
 347 350 l 1,11,-1
 147 350 l 1,12,-1
 147 217 l 1,13,-1
 347 217 l 1,10,-1
213 150 m 1,14,-1
 213 17 l 1,15,-1
 347 17 l 1,16,-1
 347 84 l 1,17,-1
 414 84 l 1,18,-1
 414 -16 l 1,19,-1
 380 -50 l 1,20,-1
 48 -50 l 1,21,-1
 14 -16 l 1,22,-1
 14 384 l 1,23,-1
 47 417 l 1,24,-1
 380 417 l 1,25,-1
 413 384 l 1,26,-1
 413 183 l 1,27,-1
 380 150 l 1,28,-1
 213 150 l 1,14,-1
EndSplineSet
EndChar

StartChar: edieresis
Encoding: 235 235 115
Width: 473
Flags: W
LayerCount: 2
Fore
SplineSet
144 484 m 1,0,-1
 45 484 l 1,1,-1
 11 518 l 1,2,-1
 11 583 l 1,3,-1
 45 617 l 1,4,-1
 144 617 l 1,5,-1
 178 583 l 1,6,-1
 178 518 l 1,7,-1
 144 484 l 1,0,-1
377 484 m 1,8,-1
 279 484 l 1,9,-1
 245 518 l 1,10,-1
 245 583 l 1,11,-1
 279 617 l 1,12,-1
 377 617 l 1,13,-1
 411 583 l 1,14,-1
 411 518 l 1,15,-1
 377 484 l 1,8,-1
344 217 m 1,16,-1
 344 350 l 1,17,-1
 144 350 l 1,18,-1
 144 217 l 1,19,-1
 344 217 l 1,16,-1
210 150 m 1,20,-1
 210 17 l 1,21,-1
 344 17 l 1,22,-1
 344 84 l 1,23,-1
 411 84 l 1,24,-1
 411 -16 l 1,25,-1
 377 -50 l 1,26,-1
 45 -50 l 1,27,-1
 11 -16 l 1,28,-1
 11 384 l 1,29,-1
 44 417 l 1,30,-1
 377 417 l 1,31,-1
 410 384 l 1,32,-1
 410 183 l 1,33,-1
 377 150 l 1,34,-1
 210 150 l 1,20,-1
EndSplineSet
EndChar

StartChar: iacute
Encoding: 237 237 116
Width: 248
Flags: W
LayerCount: 2
Fore
SplineSet
86 484 m 1,0,-1
 19 484 l 1,1,-1
 19 583 l 1,2,-1
 53 617 l 1,3,-1
 219 617 l 1,4,-1
 219 550 l 1,5,-1
 86 550 l 1,6,-1
 86 484 l 1,0,-1
85 417 m 1,7,-1
 85 250 l 1,8,-1
 152 183 l 1,9,-1
 152 -16 l 1,10,-1
 118 -50 l 1,11,-1
 53 -50 l 1,12,-1
 19 -16 l 1,13,-1
 19 417 l 1,14,-1
 85 417 l 1,7,-1
EndSplineSet
EndChar

StartChar: igrave
Encoding: 236 236 117
Width: 248
Flags: W
LayerCount: 2
Fore
SplineSet
207 484 m 1,0,-1
 141 484 l 1,1,-1
 141 550 l 1,2,-1
 8 550 l 1,3,-1
 8 617 l 1,4,-1
 174 617 l 1,5,-1
 207 584 l 1,6,-1
 207 484 l 1,0,-1
140 417 m 1,7,-1
 140 250 l 1,8,-1
 207 183 l 1,9,-1
 207 -16 l 1,10,-1
 173 -50 l 1,11,-1
 108 -50 l 1,12,-1
 74 -16 l 1,13,-1
 74 417 l 1,14,-1
 140 417 l 1,7,-1
EndSplineSet
EndChar

StartChar: icircumflex
Encoding: 238 238 118
Width: 292
Flags: W
LayerCount: 2
Fore
SplineSet
66 550 m 1,0,-1
 66 484 l 1,1,-1
 0 484 l 1,2,-1
 0 583 l 1,3,-1
 34 617 l 1,4,-1
 232 617 l 1,5,-1
 266 583 l 1,6,-1
 266 484 l 1,7,-1
 200 484 l 1,8,-1
 200 550 l 1,9,-1
 66 550 l 1,0,-1
133 417 m 1,10,-1
 133 250 l 1,11,-1
 200 183 l 1,12,-1
 200 -16 l 1,13,-1
 166 -50 l 1,14,-1
 101 -50 l 1,15,-1
 67 -16 l 1,16,-1
 67 417 l 1,17,-1
 133 417 l 1,10,-1
EndSplineSet
EndChar

StartChar: idieresis
Encoding: 239 239 119
Width: 347
Flags: W
LayerCount: 2
Fore
SplineSet
144 517 m 1,0,-1
 111 484 l 1,1,-1
 44 484 l 1,2,-1
 11 517 l 1,3,-1
 11 583 l 1,4,-1
 45 617 l 1,5,-1
 110 617 l 1,6,-1
 144 583 l 1,7,-1
 144 517 l 1,0,-1
177 517 m 1,8,-1
 177 583 l 1,9,-1
 211 617 l 1,10,-1
 276 617 l 1,11,-1
 310 583 l 1,12,-1
 310 517 l 1,13,-1
 277 484 l 1,14,-1
 210 484 l 1,15,-1
 177 517 l 1,8,-1
171 417 m 1,16,-1
 171 250 l 1,17,-1
 238 183 l 1,18,-1
 238 -16 l 1,19,-1
 204 -50 l 1,20,-1
 139 -50 l 1,21,-1
 105 -16 l 1,22,-1
 105 417 l 1,23,-1
 171 417 l 1,16,-1
EndSplineSet
EndChar

StartChar: ntilde
Encoding: 241 241 120
Width: 462
Flags: W
LayerCount: 2
Fore
SplineSet
81 550 m 1,0,-1
 81 484 l 1,1,-1
 14 484 l 1,2,-1
 14 584 l 1,3,-1
 47 617 l 1,4,-1
 247 617 l 1,5,-1
 280 584 l 1,6,-1
 280 550 l 1,7,-1
 347 550 l 1,8,-1
 347 617 l 1,9,-1
 413 617 l 1,10,-1
 413 517 l 1,11,-1
 380 484 l 1,12,-1
 181 484 l 1,13,-1
 148 517 l 1,14,-1
 148 550 l 1,15,-1
 81 550 l 1,0,-1
347 350 m 1,16,-1
 147 350 l 1,17,-1
 147 249 l 1,18,-1
 213 183 l 1,19,-1
 213 -16 l 1,20,-1
 179 -50 l 1,21,-1
 48 -50 l 1,22,-1
 14 -16 l 1,23,-1
 14 383 l 1,24,-1
 48 417 l 1,25,-1
 379 417 l 1,26,-1
 413 383 l 1,27,-1
 414 -50 l 1,28,-1
 347 -50 l 1,29,-1
 347 350 l 1,16,-1
EndSplineSet
EndChar

StartChar: oacute
Encoding: 243 243 121
Width: 462
Flags: W
LayerCount: 2
Fore
SplineSet
206 550 m 1,0,-1
 206 484 l 1,1,-1
 140 484 l 1,2,-1
 140 583 l 1,3,-1
 174 617 l 1,4,-1
 340 617 l 1,5,-1
 340 550 l 1,6,-1
 206 550 l 1,0,-1
41 -50 m 1,7,-1
 7 -16 l 1,8,-1
 7 383 l 1,9,-1
 41 417 l 1,10,-1
 372 417 l 1,11,-1
 406 383 l 1,12,-1
 406 -16 l 1,13,-1
 372 -50 l 1,14,-1
 41 -50 l 1,7,-1
340 350 m 1,15,-1
 141 350 l 1,16,-1
 141 249 l 1,17,-1
 206 184 l 1,18,-1
 206 17 l 1,19,-1
 340 17 l 1,20,-1
 340 350 l 1,15,-1
EndSplineSet
EndChar

StartChar: ograve
Encoding: 242 242 122
Width: 462
Flags: W
LayerCount: 2
Fore
SplineSet
273 484 m 1,0,-1
 207 484 l 1,1,-1
 207 550 l 1,2,-1
 73 550 l 1,3,-1
 73 617 l 1,4,-1
 240 617 l 1,5,-1
 273 584 l 1,6,-1
 273 484 l 1,0,-1
41 -50 m 1,7,-1
 7 -16 l 1,8,-1
 7 383 l 1,9,-1
 41 417 l 1,10,-1
 372 417 l 1,11,-1
 406 383 l 1,12,-1
 406 -16 l 1,13,-1
 372 -50 l 1,14,-1
 41 -50 l 1,7,-1
340 350 m 1,15,-1
 141 350 l 1,16,-1
 141 249 l 1,17,-1
 206 184 l 1,18,-1
 206 17 l 1,19,-1
 340 17 l 1,20,-1
 340 350 l 1,15,-1
EndSplineSet
EndChar

StartChar: ocircumflex
Encoding: 244 244 123
Width: 462
Flags: W
LayerCount: 2
Fore
SplineSet
144 484 m 1,0,-1
 77 484 l 1,1,-1
 77 583 l 1,2,-1
 111 617 l 1,3,-1
 310 617 l 1,4,-1
 344 583 l 1,5,-1
 344 484 l 1,6,-1
 278 484 l 1,7,-1
 278 550 l 1,8,-1
 144 550 l 1,9,-1
 144 484 l 1,0,-1
45 -50 m 1,10,-1
 11 -16 l 1,11,-1
 11 383 l 1,12,-1
 45 417 l 1,13,-1
 376 417 l 1,14,-1
 410 383 l 1,15,-1
 410 -16 l 1,16,-1
 376 -50 l 1,17,-1
 45 -50 l 1,10,-1
344 350 m 1,18,-1
 145 350 l 1,19,-1
 145 249 l 1,20,-1
 210 184 l 1,21,-1
 210 17 l 1,22,-1
 344 17 l 1,23,-1
 344 350 l 1,18,-1
EndSplineSet
EndChar

StartChar: odieresis
Encoding: 246 246 124
Width: 462
Flags: W
LayerCount: 2
Fore
SplineSet
174 517 m 1,0,-1
 141 484 l 1,1,-1
 40 484 l 1,2,-1
 7 517 l 1,3,-1
 7 584 l 1,4,-1
 40 617 l 1,5,-1
 141 617 l 1,6,-1
 174 584 l 1,7,-1
 174 517 l 1,0,-1
373 484 m 1,8,-1
 274 484 l 1,9,-1
 241 517 l 1,10,-1
 241 584 l 1,11,-1
 274 617 l 1,12,-1
 373 617 l 1,13,-1
 406 584 l 1,14,-1
 406 517 l 1,15,-1
 373 484 l 1,8,-1
41 -50 m 1,16,-1
 7 -16 l 1,17,-1
 7 383 l 1,18,-1
 41 417 l 1,19,-1
 372 417 l 1,20,-1
 406 383 l 1,21,-1
 406 -16 l 1,22,-1
 372 -50 l 1,23,-1
 41 -50 l 1,16,-1
340 350 m 1,24,-1
 141 350 l 1,25,-1
 141 249 l 1,26,-1
 206 184 l 1,27,-1
 206 17 l 1,28,-1
 340 17 l 1,29,-1
 340 350 l 1,24,-1
EndSplineSet
EndChar

StartChar: otilde
Encoding: 245 245 125
Width: 462
Flags: W
LayerCount: 2
Fore
SplineSet
74 484 m 1,0,-1
 7 484 l 1,1,-1
 7 583 l 1,2,-1
 41 617 l 1,3,-1
 241 617 l 1,4,-1
 274 584 l 1,5,-1
 274 550 l 1,6,-1
 341 550 l 1,7,-1
 341 617 l 1,8,-1
 406 617 l 1,9,-1
 406 517 l 1,10,-1
 373 484 l 1,11,-1
 174 484 l 1,12,-1
 141 517 l 1,13,-1
 141 550 l 1,14,-1
 74 550 l 1,15,-1
 74 484 l 1,0,-1
41 -50 m 1,16,-1
 7 -16 l 1,17,-1
 7 383 l 1,18,-1
 41 417 l 1,19,-1
 372 417 l 1,20,-1
 406 383 l 1,21,-1
 406 -16 l 1,22,-1
 372 -50 l 1,23,-1
 41 -50 l 1,16,-1
340 350 m 1,24,-1
 141 350 l 1,25,-1
 141 249 l 1,26,-1
 206 184 l 1,27,-1
 206 17 l 1,28,-1
 340 17 l 1,29,-1
 340 350 l 1,24,-1
EndSplineSet
EndChar

StartChar: uacute
Encoding: 250 250 126
Width: 468
Flags: W
LayerCount: 2
Fore
SplineSet
217 550 m 1,0,-1
 217 484 l 1,1,-1
 152 484 l 1,2,-1
 152 584 l 1,3,-1
 185 617 l 1,4,-1
 352 617 l 1,5,-1
 352 550 l 1,6,-1
 217 550 l 1,0,-1
384 -50 m 1,7,-1
 52 -50 l 1,8,-1
 18 -16 l 1,9,-1
 18 383 l 1,10,-1
 52 417 l 1,11,-1
 117 417 l 1,12,-1
 151 383 l 1,13,-1
 151 250 l 1,14,-1
 218 183 l 1,15,-1
 218 17 l 1,16,-1
 351 17 l 1,17,-1
 351 417 l 1,18,-1
 418 417 l 1,19,-1
 418 -16 l 1,20,-1
 384 -50 l 1,7,-1
EndSplineSet
EndChar

StartChar: ugrave
Encoding: 249 249 127
Width: 468
Flags: W
LayerCount: 2
Fore
SplineSet
353 484 m 1,0,-1
 285 484 l 1,1,-1
 285 550 l 1,2,-1
 153 550 l 1,3,-1
 153 617 l 1,4,-1
 319 617 l 1,5,-1
 353 583 l 1,6,-1
 353 484 l 1,0,-1
385 -50 m 1,7,-1
 53 -50 l 1,8,-1
 19 -16 l 1,9,-1
 19 383 l 1,10,-1
 53 417 l 1,11,-1
 118 417 l 1,12,-1
 152 383 l 1,13,-1
 152 250 l 1,14,-1
 219 183 l 1,15,-1
 219 17 l 1,16,-1
 352 17 l 1,17,-1
 352 417 l 1,18,-1
 419 417 l 1,19,-1
 419 -16 l 1,20,-1
 385 -50 l 1,7,-1
EndSplineSet
EndChar

StartChar: ucircumflex
Encoding: 251 251 128
Width: 468
Flags: W
LayerCount: 2
Fore
SplineSet
152 550 m 1,0,-1
 152 484 l 1,1,-1
 85 484 l 1,2,-1
 85 583 l 1,3,-1
 119 617 l 1,4,-1
 318 617 l 1,5,-1
 352 583 l 1,6,-1
 352 484 l 1,7,-1
 285 484 l 1,8,-1
 285 550 l 1,9,-1
 152 550 l 1,0,-1
384 -50 m 1,10,-1
 52 -50 l 1,11,-1
 18 -16 l 1,12,-1
 18 383 l 1,13,-1
 52 417 l 1,14,-1
 117 417 l 1,15,-1
 151 383 l 1,16,-1
 151 250 l 1,17,-1
 218 183 l 1,18,-1
 218 17 l 1,19,-1
 351 17 l 1,20,-1
 351 417 l 1,21,-1
 418 417 l 1,22,-1
 418 -16 l 1,23,-1
 384 -50 l 1,10,-1
EndSplineSet
EndChar

StartChar: udieresis
Encoding: 252 252 129
Width: 468
Flags: W
LayerCount: 2
Fore
SplineSet
182 518 m 1,0,-1
 148 484 l 1,1,-1
 48 484 l 1,2,-1
 14 518 l 1,3,-1
 14 583 l 1,4,-1
 48 617 l 1,5,-1
 148 617 l 1,6,-1
 182 583 l 1,7,-1
 182 518 l 1,0,-1
415 518 m 1,8,-1
 381 484 l 1,9,-1
 282 484 l 1,10,-1
 248 518 l 1,11,-1
 248 583 l 1,12,-1
 282 617 l 1,13,-1
 381 617 l 1,14,-1
 415 583 l 1,15,-1
 415 518 l 1,8,-1
381 -50 m 1,16,-1
 49 -50 l 1,17,-1
 15 -16 l 1,18,-1
 15 383 l 1,19,-1
 49 417 l 1,20,-1
 114 417 l 1,21,-1
 148 383 l 1,22,-1
 148 250 l 1,23,-1
 215 183 l 1,24,-1
 215 17 l 1,25,-1
 348 17 l 1,26,-1
 348 417 l 1,27,-1
 415 417 l 1,28,-1
 415 -16 l 1,29,-1
 381 -50 l 1,16,-1
EndSplineSet
EndChar

StartChar: dagger
Encoding: 8224 8224 130
Width: 308
Flags: W
LayerCount: 2
Fore
SplineSet
168 217 m 1,0,-1
 102 217 l 1,1,-1
 102 417 l 1,2,-1
 35 417 l 1,3,-1
 34 484 l 1,4,-1
 102 484 l 1,5,-1
 101 550 l 1,6,-1
 168 551 l 1,7,-1
 169 484 l 1,8,-1
 234 484 l 1,9,-1
 234 417 l 1,10,-1
 168 417 l 1,11,-1
 168 217 l 1,0,-1
EndSplineSet
EndChar

StartChar: degree
Encoding: 176 176 131
Width: 341
Flags: W
LayerCount: 2
Fore
SplineSet
262 284 m 1,0,-1
 62 284 l 1,1,-1
 29 317 l 1,2,-1
 29 517 l 1,3,-1
 62 550 l 1,4,-1
 262 550 l 1,5,-1
 295 517 l 1,6,-1
 295 317 l 1,7,-1
 262 284 l 1,0,-1
229 484 m 1,8,-1
 96 484 l 1,9,-1
 96 350 l 1,10,-1
 229 350 l 1,11,-1
 229 484 l 1,8,-1
EndSplineSet
EndChar

StartChar: cent
Encoding: 162 162 132
Width: 490
Flags: W
LayerCount: 2
Fore
SplineSet
196 484 m 1,0,-1
 95 484 l 1,1,-1
 95 383 l 1,2,-1
 162 316 l 1,3,-1
 162 217 l 1,4,-1
 196 217 l 1,5,-1
 196 484 l 1,0,-1
62 150 m 1,6,-1
 29 183 l 1,7,-1
 29 516 l 1,8,-1
 63 550 l 1,9,-1
 196 550 l 1,10,-1
 196 617 l 1,11,-1
 262 617 l 1,12,-1
 262 550 l 1,13,-1
 394 550 l 1,14,-1
 428 516 l 1,15,-1
 428 417 l 1,16,-1
 363 417 l 1,17,-1
 363 484 l 1,18,-1
 263 484 l 1,19,-1
 263 217 l 1,20,-1
 363 217 l 1,21,-1
 363 284 l 1,22,-1
 429 284 l 1,23,-1
 429 183 l 1,24,-1
 396 150 l 1,25,-1
 262 150 l 1,26,-1
 262 84 l 1,27,-1
 195 84 l 1,28,-1
 195 150 l 1,29,-1
 62 150 l 1,6,-1
EndSplineSet
EndChar

StartChar: sterling
Encoding: 163 163 133
Width: 572
Flags: W
LayerCount: 2
Fore
SplineSet
492 -15 m 1,0,-1
 457 -50 l 1,1,-1
 127 -50 l 1,2,-1
 92 -15 l 1,3,-1
 92 217 l 1,4,-1
 25 217 l 1,5,-1
 25 284 l 1,6,-1
 159 284 l 1,7,-1
 159 517 l 1,8,-1
 192 550 l 1,9,-1
 392 550 l 1,10,-1
 426 516 l 1,11,-1
 426 417 l 1,12,-1
 359 417 l 1,13,-1
 359 484 l 1,14,-1
 291 484 l 1,15,-1
 291 284 l 1,16,-1
 426 284 l 1,17,-1
 426 217 l 1,18,-1
 291 217 l 1,19,-1
 291 17 l 1,20,-1
 426 17 l 1,21,-1
 426 84 l 1,22,-1
 492 84 l 1,23,-1
 492 -15 l 1,0,-1
EndSplineSet
EndChar

StartChar: section
Encoding: 167 167 134
Width: 462
Flags: W
LayerCount: 2
Fore
SplineSet
383 -150 m 1,0,-1
 350 -183 l 1,1,-1
 84 -183 l 1,2,-1
 50 -149 l 1,3,-1
 50 -50 l 1,4,-1
 117 -50 l 1,5,-1
 117 -116 l 1,6,-1
 251 -116 l 1,7,-1
 251 84 l 1,8,-1
 84 84 l 1,9,-1
 51 117 l 1,10,-1
 51 583 l 1,11,-1
 85 617 l 1,12,-1
 350 617 l 1,13,-1
 384 583 l 1,14,-1
 384 484 l 1,15,-1
 318 484 l 1,16,-1
 318 550 l 1,17,-1
 184 550 l 1,18,-1
 184 350 l 1,19,-1
 350 350 l 1,20,-1
 383 317 l 1,21,-1
 383 -150 l 1,0,-1
318 284 m 1,22,-1
 117 284 l 1,23,-1
 117 150 l 1,24,-1
 318 150 l 1,25,-1
 318 284 l 1,22,-1
EndSplineSet
EndChar

StartChar: bullet
Encoding: 8226 8226 135
Width: 440
Flags: W
LayerCount: 2
Fore
SplineSet
70 84 m 1,0,-1
 37 117 l 1,1,-1
 37 384 l 1,2,-1
 70 417 l 1,3,-1
 336 417 l 1,4,-1
 369 384 l 1,5,-1
 369 117 l 1,6,-1
 336 84 l 1,7,-1
 70 84 l 1,0,-1
EndSplineSet
EndChar

StartChar: paragraph
Encoding: 182 182 136
Width: 572
Flags: W
LayerCount: 2
Fore
SplineSet
363 -50 m 1,0,-1
 295 -50 l 1,1,-1
 295 217 l 1,2,-1
 63 217 l 1,3,-1
 29 251 l 1,4,-1
 29 516 l 1,5,-1
 63 550 l 1,6,-1
 461 550 l 1,7,-1
 495 516 l 1,8,-1
 495 -50 l 1,9,-1
 430 -50 l 1,10,-1
 430 484 l 1,11,-1
 363 484 l 1,12,-1
 363 -50 l 1,0,-1
295 484 m 1,13,-1
 163 484 l 1,14,-1
 163 284 l 1,15,-1
 295 284 l 1,16,-1
 295 484 l 1,13,-1
EndSplineSet
EndChar

StartChar: germandbls
Encoding: 223 223 137
Width: 534
Flags: W
LayerCount: 2
Fore
SplineSet
213 183 m 1,0,-1
 213 -50 l 1,1,-1
 47 -50 l 1,2,-1
 12 -15 l 1,3,-1
 12 516 l 1,4,-1
 46 550 l 1,5,-1
 379 550 l 1,6,-1
 413 516 l 1,7,-1
 413 384 l 1,8,-1
 480 317 l 1,9,-1
 480 -16 l 1,10,-1
 446 -50 l 1,11,-1
 279 -50 l 1,12,-1
 279 17 l 1,13,-1
 414 17 l 1,14,-1
 414 284 l 1,15,-1
 279 284 l 1,16,-1
 279 350 l 1,17,-1
 346 350 l 1,18,-1
 346 484 l 1,19,-1
 147 484 l 1,20,-1
 147 249 l 1,21,-1
 213 183 l 1,0,-1
EndSplineSet
EndChar

StartChar: registered
Encoding: 174 174 138
Width: 407
Flags: W
LayerCount: 2
Fore
SplineSet
69 250 m 1,0,-1
 35 284 l 1,1,-1
 35 517 l 1,2,-1
 68 550 l 1,3,-1
 301 550 l 1,4,-1
 334 517 l 1,5,-1
 334 282 l 1,6,-1
 302 250 l 1,7,-1
 69 250 l 1,0,-1
302 517 m 1,8,-1
 69 517 l 1,9,-1
 69 284 l 1,10,-1
 302 284 l 1,11,-1
 302 517 l 1,8,-1
235 484 m 1,12,-1
 101 484 l 1,13,-1
 101 317 l 1,14,-1
 168 317 l 1,15,-1
 168 384 l 1,16,-1
 234 384 l 1,17,-1
 234 317 l 1,18,-1
 269 317 l 1,19,-1
 269 417 l 1,20,-1
 235 451 l 1,21,-1
 235 484 l 1,12,-1
201 417 m 1,22,-1
 168 417 l 1,23,-1
 168 450 l 1,24,-1
 201 450 l 1,25,-1
 201 417 l 1,22,-1
EndSplineSet
EndChar

StartChar: copyright
Encoding: 169 169 139
Width: 385
Flags: W
LayerCount: 2
Fore
SplineSet
69 250 m 1,0,-1
 35 284 l 1,1,-1
 35 517 l 1,2,-1
 68 550 l 1,3,-1
 302 550 l 1,4,-1
 335 517 l 1,5,-1
 335 284 l 1,6,-1
 301 250 l 1,7,-1
 69 250 l 1,0,-1
301 517 m 1,8,-1
 69 517 l 1,9,-1
 69 284 l 1,10,-1
 301 284 l 1,11,-1
 301 517 l 1,8,-1
268 317 m 1,12,-1
 101 317 l 1,13,-1
 101 484 l 1,14,-1
 268 484 l 1,15,-1
 268 417 l 1,16,-1
 235 417 l 1,17,-1
 235 450 l 1,18,-1
 169 450 l 1,19,-1
 169 350 l 1,20,-1
 235 350 l 1,21,-1
 235 384 l 1,22,-1
 268 384 l 1,23,-1
 268 317 l 1,12,-1
EndSplineSet
EndChar

StartChar: trademark
Encoding: 8482 8482 140
Width: 506
Flags: W
LayerCount: 2
Fore
SplineSet
102 350 m 1,0,-1
 69 350 l 1,1,-1
 69 517 l 1,2,-1
 34 517 l 1,3,-1
 34 550 l 1,4,-1
 135 550 l 1,5,-1
 135 517 l 1,6,-1
 102 517 l 1,7,-1
 102 350 l 1,0,-1
235 350 m 1,8,-1
 202 350 l 1,9,-1
 202 517 l 1,10,-1
 235 550 l 1,11,-1
 402 550 l 1,12,-1
 435 517 l 1,13,-1
 435 350 l 1,14,-1
 402 350 l 1,15,-1
 402 517 l 1,16,-1
 335 517 l 1,17,-1
 335 350 l 1,18,-1
 302 350 l 1,19,-1
 302 517 l 1,20,-1
 235 517 l 1,21,-1
 235 350 l 1,8,-1
EndSplineSet
EndChar

StartChar: acute
Encoding: 180 180 141
Width: 341
Flags: W
LayerCount: 2
Fore
SplineSet
133 350 m 1,0,-1
 65 350 l 1,1,-1
 65 516 l 1,2,-1
 99 550 l 1,3,-1
 265 550 l 1,4,-1
 265 484 l 1,5,-1
 133 484 l 1,6,-1
 133 350 l 1,0,-1
EndSplineSet
EndChar

StartChar: dieresis
Encoding: 168 168 142
Width: 473
Flags: W
LayerCount: 2
Fore
SplineSet
142 417 m 1,0,-1
 42 417 l 1,1,-1
 9 450 l 1,2,-1
 9 517 l 1,3,-1
 42 550 l 1,4,-1
 142 550 l 1,5,-1
 175 517 l 1,6,-1
 175 450 l 1,7,-1
 142 417 l 1,0,-1
242 450 m 1,8,-1
 242 517 l 1,9,-1
 275 550 l 1,10,-1
 375 550 l 1,11,-1
 408 517 l 1,12,-1
 408 450 l 1,13,-1
 375 417 l 1,14,-1
 275 417 l 1,15,-1
 242 450 l 1,8,-1
EndSplineSet
EndChar

StartChar: notequal
Encoding: 8800 8800 143
Width: 605
Flags: W
LayerCount: 2
Fore
SplineSet
273 17 m 1,0,-1
 174 17 l 1,1,-1
 174 84 l 1,2,-1
 240 84 l 1,3,-1
 240 150 l 1,4,-1
 39 150 l 1,5,-1
 39 217 l 1,6,-1
 240 217 l 1,7,-1
 240 284 l 1,8,-1
 39 284 l 1,9,-1
 39 350 l 1,10,-1
 240 350 l 1,11,-1
 240 450 l 1,12,-1
 274 484 l 1,13,-1
 373 484 l 1,14,-1
 373 417 l 1,15,-1
 306 417 l 1,16,-1
 306 350 l 1,17,-1
 506 350 l 1,18,-1
 506 284 l 1,19,-1
 306 284 l 1,20,-1
 306 217 l 1,21,-1
 506 217 l 1,22,-1
 506 150 l 1,23,-1
 306 150 l 1,24,-1
 306 50 l 1,25,-1
 273 17 l 1,0,-1
EndSplineSet
EndChar

StartChar: AE
Encoding: 198 198 144
Width: 847
Flags: W
LayerCount: 2
Fore
SplineSet
184 -50 m 1,0,-1
 53 -50 l 1,1,-1
 18 -15 l 1,2,-1
 18 316 l 1,3,-1
 86 384 l 1,4,-1
 86 517 l 1,5,-1
 119 550 l 1,6,-1
 752 550 l 1,7,-1
 752 484 l 1,8,-1
 485 484 l 1,9,-1
 485 350 l 1,10,-1
 752 350 l 1,11,-1
 752 284 l 1,12,-1
 552 284 l 1,13,-1
 552 17 l 1,14,-1
 752 17 l 1,15,-1
 752 -50 l 1,16,-1
 452 -50 l 1,17,-1
 418 -16 l 1,18,-1
 419 284 l 1,19,-1
 218 284 l 1,20,-1
 218 -16 l 1,21,-1
 184 -50 l 1,0,-1
353 484 m 1,22,-1
 218 484 l 1,23,-1
 218 350 l 1,24,-1
 353 350 l 1,25,-1
 353 484 l 1,22,-1
EndSplineSet
EndChar

StartChar: Oslash
Encoding: 216 216 145
Width: 858
Flags: W
LayerCount: 2
Fore
SplineSet
643 366 m 1,0,-1
 643 -17 l 1,1,-1
 610 -50 l 1,2,-1
 211 -50 l 1,3,-1
 177 -16 l 1,4,-1
 177 81 l 1,5,-1
 32 -9 l 1,6,-1
 32 89 l 1,7,-1
 176 183 l 1,8,-1
 176 516 l 1,9,-1
 210 550 l 1,10,-1
 610 550 l 1,11,-1
 643 517 l 1,12,-1
 643 465 l 1,13,-1
 761 542 l 1,14,-1
 761 444 l 1,15,-1
 643 366 l 1,0,-1
243 119 m 1,16,-1
 243 17 l 1,17,-1
 443 17 l 1,18,-1
 443 242 l 1,19,-1
 243 119 l 1,16,-1
244 484 m 1,20,-1
 244 221 l 1,21,-1
 511 385 l 1,22,-1
 511 484 l 1,23,-1
 244 484 l 1,20,-1
EndSplineSet
EndChar

StartChar: infinity
Encoding: 8734 8734 146
Width: 847
Flags: W
LayerCount: 2
Fore
SplineSet
724 84 m 1,0,-1
 58 84 l 1,1,-1
 24 118 l 1,2,-1
 24 383 l 1,3,-1
 58 417 l 1,4,-1
 723 417 l 1,5,-1
 757 383 l 1,6,-1
 757 117 l 1,7,-1
 724 84 l 1,0,-1
691 350 m 1,8,-1
 458 350 l 1,9,-1
 458 250 l 1,10,-1
 524 250 l 1,11,-1
 524 150 l 1,12,-1
 691 150 l 1,13,-1
 691 350 l 1,8,-1
258 350 m 1,14,-1
 90 350 l 1,15,-1
 90 150 l 1,16,-1
 324 150 l 1,17,-1
 324 250 l 1,18,-1
 258 250 l 1,19,-1
 258 350 l 1,14,-1
EndSplineSet
EndChar

StartChar: plusminus
Encoding: 177 177 147
Width: 528
Flags: W
LayerCount: 2
Fore
SplineSet
399 -50 m 1,0,-1
 66 -50 l 1,1,-1
 66 17 l 1,2,-1
 399 17 l 1,3,-1
 399 -50 l 1,0,-1
265 84 m 1,4,-1
 199 84 l 1,5,-1
 199 217 l 1,6,-1
 66 217 l 1,7,-1
 66 284 l 1,8,-1
 198 284 l 1,9,-1
 198 417 l 1,10,-1
 265 417 l 1,11,-1
 265 284 l 1,12,-1
 399 284 l 1,13,-1
 399 217 l 1,14,-1
 265 217 l 1,15,-1
 265 84 l 1,4,-1
EndSplineSet
EndChar

StartChar: lessequal
Encoding: 8804 8804 148
Width: 418
Flags: W
LayerCount: 2
Fore
SplineSet
332 -50 m 1,0,-1
 66 -50 l 1,1,-1
 66 17 l 1,2,-1
 332 17 l 1,3,-1
 332 -50 l 1,0,-1
266 150 m 1,4,-1
 266 84 l 1,5,-1
 99 84 l 1,6,-1
 66 117 l 1,7,-1
 66 384 l 1,8,-1
 99 417 l 1,9,-1
 266 417 l 1,10,-1
 266 350 l 1,11,-1
 132 350 l 1,12,-1
 132 150 l 1,13,-1
 266 150 l 1,4,-1
EndSplineSet
EndChar

StartChar: greaterequal
Encoding: 8805 8805 149
Width: 418
Flags: W
LayerCount: 2
Fore
SplineSet
40 -50 m 1,0,-1
 306 -50 l 1,1,-1
 306 17 l 1,2,-1
 40 17 l 1,3,-1
 40 -50 l 1,0,-1
106 150 m 1,4,-1
 106 84 l 1,5,-1
 273 84 l 1,6,-1
 306 117 l 1,7,-1
 306 384 l 1,8,-1
 273 417 l 1,9,-1
 106 417 l 1,10,-1
 106 350 l 1,11,-1
 240 350 l 1,12,-1
 240 150 l 1,13,-1
 106 150 l 1,4,-1
EndSplineSet
EndChar

StartChar: yen
Encoding: 165 165 150
Width: 605
Flags: W
LayerCount: 2
Fore
SplineSet
345 -50 m 1,0,-1
 212 -50 l 1,1,-1
 179 -16 l 1,2,-1
 179 17 l 1,3,-1
 45 17 l 1,4,-1
 45 84 l 1,5,-1
 179 84 l 1,6,-1
 179 150 l 1,7,-1
 45 150 l 1,8,-1
 45 217 l 1,9,-1
 179 217 l 1,10,-1
 179 284 l 1,11,-1
 78 284 l 1,12,-1
 45 317 l 1,13,-1
 45 550 l 1,14,-1
 111 550 l 1,15,-1
 111 350 l 1,16,-1
 446 350 l 1,17,-1
 446 550 l 1,18,-1
 511 550 l 1,19,-1
 511 317 l 1,20,-1
 478 284 l 1,21,-1
 379 284 l 1,22,-1
 379 217 l 1,23,-1
 511 217 l 1,24,-1
 511 150 l 1,25,-1
 379 150 l 1,26,-1
 379 84 l 1,27,-1
 511 84 l 1,28,-1
 511 17 l 1,29,-1
 379 17 l 1,30,-1
 379 -16 l 1,31,-1
 345 -50 l 1,0,-1
EndSplineSet
EndChar

StartChar: mu
Encoding: 181 181 151
Width: 572
Flags: W
LayerCount: 2
Fore
SplineSet
18 -116 m 1,0,-1
 85 -116 l 1,1,-1
 85 384 l 1,2,-1
 118 417 l 1,3,-1
 184 417 l 1,4,-1
 217 384 l 1,5,-1
 217 250 l 1,6,-1
 284 183 l 1,7,-1
 284 17 l 1,8,-1
 419 17 l 1,9,-1
 419 417 l 1,10,-1
 485 417 l 1,11,-1
 485 -17 l 1,12,-1
 452 -50 l 1,13,-1
 151 -50 l 1,14,-1
 151 -149 l 1,15,-1
 117 -183 l 1,16,-1
 18 -183 l 1,17,-1
 18 -116 l 1,0,-1
EndSplineSet
EndChar

StartChar: partialdiff
Encoding: 8706 8706 152
Width: 490
Flags: W
LayerCount: 2
Fore
SplineSet
390 -50 m 1,0,-1
 57 -50 l 1,1,-1
 24 -17 l 1,2,-1
 24 250 l 1,3,-1
 58 284 l 1,4,-1
 291 284 l 1,5,-1
 291 417 l 1,6,-1
 90 417 l 1,7,-1
 90 484 l 1,8,-1
 323 484 l 1,9,-1
 358 449 l 1,10,-1
 358 316 l 1,11,-1
 423 250 l 1,12,-1
 423 -17 l 1,13,-1
 390 -50 l 1,0,-1
291 217 m 1,14,-1
 157 217 l 1,15,-1
 157 183 l 1,16,-1
 224 116 l 1,17,-1
 224 17 l 1,18,-1
 291 17 l 1,19,-1
 291 217 l 1,14,-1
EndSplineSet
EndChar

StartChar: summation
Encoding: 931 931 153
Width: 627
Flags: W
LayerCount: 2
Fore
SplineSet
532 -16 m 1,0,-1
 498 -50 l 1,1,-1
 100 -50 l 1,2,-1
 66 -16 l 1,3,-1
 66 250 l 1,4,-1
 100 284 l 1,5,-1
 200 284 l 1,6,-1
 200 516 l 1,7,-1
 234 550 l 1,8,-1
 498 550 l 1,9,-1
 532 516 l 1,10,-1
 532 417 l 1,11,-1
 467 417 l 1,12,-1
 467 484 l 1,13,-1
 266 484 l 1,14,-1
 266 284 l 1,15,-1
 367 284 l 1,16,-1
 367 217 l 1,17,-1
 266 217 l 1,18,-1
 266 17 l 1,19,-1
 467 17 l 1,20,-1
 467 84 l 1,21,-1
 532 84 l 1,22,-1
 532 -16 l 1,0,-1
EndSplineSet
EndChar

StartChar: product
Encoding: 8719 8719 154
Width: 693
Flags: W
LayerCount: 2
Fore
SplineSet
317 -17 m 1,0,-1
 284 -50 l 1,1,-1
 151 -50 l 1,2,-1
 118 -16 l 1,3,-1
 118 484 l 1,4,-1
 51 484 l 1,5,-1
 51 550 l 1,6,-1
 583 550 l 1,7,-1
 583 484 l 1,8,-1
 517 484 l 1,9,-1
 517 -50 l 1,10,-1
 451 -50 l 1,11,-1
 451 484 l 1,12,-1
 250 484 l 1,13,-1
 250 250 l 1,14,-1
 317 183 l 1,15,-1
 317 -17 l 1,0,-1
EndSplineSet
EndChar

StartChar: pi
Encoding: 960 960 155
Width: 726
Flags: W
LayerCount: 2
Fore
SplineSet
357 -17 m 1,0,-1
 324 -50 l 1,1,-1
 191 -50 l 1,2,-1
 158 -17 l 1,3,-1
 158 350 l 1,4,-1
 90 350 l 1,5,-1
 90 284 l 1,6,-1
 24 284 l 1,7,-1
 24 383 l 1,8,-1
 58 417 l 1,9,-1
 557 417 l 1,10,-1
 557 484 l 1,11,-1
 623 484 l 1,12,-1
 623 384 l 1,13,-1
 557 318 l 1,14,-1
 557 -50 l 1,15,-1
 491 -50 l 1,16,-1
 491 350 l 1,17,-1
 290 350 l 1,18,-1
 290 250 l 1,19,-1
 357 183 l 1,20,-1
 357 -17 l 1,0,-1
EndSplineSet
EndChar

StartChar: integral
Encoding: 8747 8747 156
Width: 380
Flags: W
LayerCount: 2
Fore
SplineSet
229 -149 m 1,0,-1
 195 -183 l 1,1,-1
 29 -183 l 1,2,-1
 29 -116 l 1,3,-1
 96 -116 l 1,4,-1
 96 517 l 1,5,-1
 129 550 l 1,6,-1
 295 550 l 1,7,-1
 295 484 l 1,8,-1
 229 484 l 1,9,-1
 229 -149 l 1,0,-1
EndSplineSet
EndChar

StartChar: ordfeminine
Encoding: 170 170 157
Width: 462
Flags: W
LayerCount: 2
Fore
SplineSet
280 150 m 1,0,-1
 148 150 l 1,1,-1
 148 18 l 1,2,-1
 280 18 l 1,3,-1
 280 150 l 1,0,-1
47 -50 m 1,4,-1
 13 -16 l 1,5,-1
 13 184 l 1,6,-1
 48 218 l 1,7,-1
 280 218 l 1,8,-1
 280 350 l 1,9,-1
 80 350 l 1,10,-1
 80 283 l 1,11,-1
 13 283 l 1,12,-1
 13 384 l 1,13,-1
 47 417 l 1,14,-1
 314 417 l 1,15,-1
 347 384 l 1,16,-1
 347 219 l 1,17,-1
 414 170 l 1,18,-1
 414 -16 l 1,19,-1
 380 -50 l 1,20,-1
 47 -50 l 1,4,-1
414 -129 m 1,21,-1
 13 -129 l 1,22,-1
 13 -95 l 1,23,-1
 414 -95 l 1,24,-1
 414 -129 l 1,21,-1
EndSplineSet
EndChar

StartChar: ordmasculine
Encoding: 186 186 158
Width: 473
Flags: W
LayerCount: 2
Fore
SplineSet
59 -50 m 1,0,-1
 24 -15 l 1,1,-1
 24 382 l 1,2,-1
 59 417 l 1,3,-1
 389 417 l 1,4,-1
 424 382 l 1,5,-1
 424 -15 l 1,6,-1
 389 -50 l 1,7,-1
 59 -50 l 1,0,-1
357 350 m 1,8,-1
 158 350 l 1,9,-1
 158 249 l 1,10,-1
 224 183 l 1,11,-1
 224 17 l 1,12,-1
 357 17 l 1,13,-1
 357 350 l 1,8,-1
424 -138 m 1,14,-1
 24 -138 l 1,15,-1
 24 -99 l 1,16,-1
 424 -99 l 1,17,-1
 424 -138 l 1,14,-1
EndSplineSet
EndChar

StartChar: Omega
Encoding: 937 937 159
Width: 649
Flags: W
LayerCount: 2
Fore
SplineSet
228 -17 m 1,0,-1
 195 -50 l 1,1,-1
 95 -50 l 1,2,-1
 95 17 l 1,3,-1
 163 17 l 1,4,-1
 163 150 l 1,5,-1
 63 150 l 1,6,-1
 29 184 l 1,7,-1
 29 383 l 1,8,-1
 63 417 l 1,9,-1
 163 417 l 1,10,-1
 163 517 l 1,11,-1
 196 550 l 1,12,-1
 395 550 l 1,13,-1
 428 517 l 1,14,-1
 428 417 l 1,15,-1
 527 417 l 1,16,-1
 561 383 l 1,17,-1
 561 183 l 1,18,-1
 528 150 l 1,19,-1
 428 150 l 1,20,-1
 428 17 l 1,21,-1
 495 17 l 1,22,-1
 495 -50 l 1,23,-1
 396 -50 l 1,24,-1
 363 -17 l 1,25,-1
 363 484 l 1,26,-1
 228 484 l 1,27,-1
 228 -17 l 1,0,-1
EndSplineSet
EndChar

StartChar: ae
Encoding: 230 230 160
Width: 759
Flags: W
LayerCount: 2
Fore
SplineSet
679 -16 m 1,0,-1
 645 -50 l 1,1,-1
 380 -50 l 1,2,-1
 363 -16 l 1,3,-1
 346 -50 l 1,4,-1
 47 -50 l 1,5,-1
 13 -16 l 1,6,-1
 13 183 l 1,7,-1
 47 217 l 1,8,-1
 280 217 l 1,9,-1
 280 350 l 1,10,-1
 80 350 l 1,11,-1
 80 284 l 1,12,-1
 13 284 l 1,13,-1
 13 383 l 1,14,-1
 47 417 l 1,15,-1
 313 417 l 1,16,-1
 330 383 l 1,17,-1
 347 417 l 1,18,-1
 645 417 l 1,19,-1
 679 383 l 1,20,-1
 679 183 l 1,21,-1
 646 150 l 1,22,-1
 479 150 l 1,23,-1
 479 17 l 1,24,-1
 614 17 l 1,25,-1
 614 84 l 1,26,-1
 679 84 l 1,27,-1
 679 -16 l 1,0,-1
280 150 m 1,28,-1
 146 150 l 1,29,-1
 146 17 l 1,30,-1
 280 17 l 1,31,-1
 280 150 l 1,28,-1
614 350 m 1,32,-1
 413 350 l 1,33,-1
 413 217 l 1,34,-1
 614 217 l 1,35,-1
 614 350 l 1,32,-1
EndSplineSet
EndChar

StartChar: questiondown
Encoding: 191 191 161
Width: 517
Flags: W
LayerCount: 2
Fore
SplineSet
409 -50 m 1,0,-1
 78 -50 l 1,1,-1
 44 -16 l 1,2,-1
 44 316 l 1,3,-1
 78 350 l 1,4,-1
 143 350 l 1,5,-1
 177 316 l 1,6,-1
 177 17 l 1,7,-1
 378 17 l 1,8,-1
 378 84 l 1,9,-1
 443 84 l 1,10,-1
 443 -16 l 1,11,-1
 409 -50 l 1,0,-1
176 417 m 1,12,-1
 78 417 l 1,13,-1
 44 451 l 1,14,-1
 44 516 l 1,15,-1
 78 550 l 1,16,-1
 176 550 l 1,17,-1
 210 516 l 1,18,-1
 210 451 l 1,19,-1
 176 417 l 1,12,-1
EndSplineSet
EndChar

StartChar: exclamdown
Encoding: 161 161 162
Width: 215
Flags: W
LayerCount: 2
Fore
SplineSet
101 350 m 1,0,-1
 101 233 l 1,1,-1
 169 180 l 1,2,-1
 169 -16 l 1,3,-1
 135 -50 l 1,4,-1
 69 -50 l 1,5,-1
 35 -16 l 1,6,-1
 35 350 l 1,7,-1
 101 350 l 1,0,-1
2 516 m 1,8,-1
 36 550 l 1,9,-1
 135 550 l 1,10,-1
 168 517 l 1,11,-1
 168 450 l 1,12,-1
 135 417 l 1,13,-1
 36 417 l 1,14,-1
 2 451 l 1,15,-1
 2 516 l 1,8,-1
EndSplineSet
EndChar

StartChar: logicalnot
Encoding: 172 172 163
Width: 418
Flags: W
LayerCount: 2
Fore
SplineSet
361 250 m 1,0,-1
 361 84 l 1,1,-1
 296 84 l 1,2,-1
 296 217 l 1,3,-1
 28 217 l 1,4,-1
 28 284 l 1,5,-1
 327 284 l 1,6,-1
 361 250 l 1,0,-1
EndSplineSet
EndChar

StartChar: florin
Encoding: 402 402 164
Width: 358
Flags: W
LayerCount: 2
Fore
SplineSet
196 -183 m 1,0,-1
 29 -183 l 1,1,-1
 29 -116 l 1,2,-1
 96 -116 l 1,3,-1
 96 284 l 1,4,-1
 29 284 l 1,5,-1
 29 350 l 1,6,-1
 96 350 l 1,7,-1
 96 517 l 1,8,-1
 129 550 l 1,9,-1
 295 550 l 1,10,-1
 295 484 l 1,11,-1
 162 484 l 1,12,-1
 162 350 l 1,13,-1
 295 350 l 1,14,-1
 295 284 l 1,15,-1
 229 284 l 1,16,-1
 229 -150 l 1,17,-1
 196 -183 l 1,0,-1
EndSplineSet
EndChar

StartChar: approxequal
Encoding: 8776 8776 165
Width: 506
Flags: W
LayerCount: 2
Fore
SplineSet
101 17 m 1,0,-1
 101 -50 l 1,1,-1
 35 -50 l 1,2,-1
 35 116 l 1,3,-1
 69 150 l 1,4,-1
 369 150 l 1,5,-1
 369 217 l 1,6,-1
 434 217 l 1,7,-1
 434 50 l 1,8,-1
 401 17 l 1,9,-1
 101 17 l 1,0,-1
101 217 m 1,10,-1
 35 217 l 1,11,-1
 35 384 l 1,12,-1
 69 417 l 1,13,-1
 369 417 l 1,14,-1
 369 484 l 1,15,-1
 434 484 l 1,16,-1
 434 317 l 1,17,-1
 402 284 l 1,18,-1
 101 284 l 1,19,-1
 101 217 l 1,10,-1
EndSplineSet
EndChar

StartChar: Delta
Encoding: 8710 8710 166
Width: 594
Flags: W
LayerCount: 2
Fore
SplineSet
519 -50 m 1,0,-1
 19 -50 l 1,1,-1
 19 -17 l 1,2,-1
 252 450 l 1,3,-1
 285 450 l 1,4,-1
 519 -16 l 1,5,-1
 519 -50 l 1,0,-1
419 17 m 1,6,-1
 270 317 l 1,7,-1
 119 17 l 1,8,-1
 419 17 l 1,6,-1
EndSplineSet
EndChar

StartChar: guillemotleft
Encoding: 171 171 167
Width: 627
Flags: W
LayerCount: 2
Fore
SplineSet
328 -50 m 1,0,-1
 229 -50 l 1,1,-1
 29 150 l 1,2,-1
 29 217 l 1,3,-1
 229 417 l 1,4,-1
 328 417 l 1,5,-1
 328 384 l 1,6,-1
 162 217 l 1,7,-1
 129 217 l 1,8,-1
 129 150 l 1,9,-1
 162 150 l 1,10,-1
 328 -16 l 1,11,-1
 328 -50 l 1,0,-1
229 150 m 1,12,-1
 229 217 l 1,13,-1
 429 417 l 1,14,-1
 528 417 l 1,15,-1
 528 384 l 1,16,-1
 363 217 l 1,17,-1
 329 217 l 1,18,-1
 329 150 l 1,19,-1
 362 150 l 1,20,-1
 528 -16 l 1,21,-1
 528 -50 l 1,22,-1
 429 -50 l 1,23,-1
 229 150 l 1,12,-1
EndSplineSet
EndChar

StartChar: guillemotright
Encoding: 187 187 168
Width: 627
Flags: W
LayerCount: 2
Fore
SplineSet
235 -50 m 1,0,-1
 334 -50 l 1,1,-1
 534 150 l 1,2,-1
 534 217 l 1,3,-1
 334 417 l 1,4,-1
 235 417 l 1,5,-1
 235 384 l 1,6,-1
 401 217 l 1,7,-1
 434 217 l 1,8,-1
 434 150 l 1,9,-1
 401 150 l 1,10,-1
 235 -16 l 1,11,-1
 235 -50 l 1,0,-1
334 150 m 1,12,-1
 334 217 l 1,13,-1
 134 417 l 1,14,-1
 35 417 l 1,15,-1
 35 384 l 1,16,-1
 200 217 l 1,17,-1
 234 217 l 1,18,-1
 234 150 l 1,19,-1
 201 150 l 1,20,-1
 35 -16 l 1,21,-1
 35 -50 l 1,22,-1
 134 -50 l 1,23,-1
 334 150 l 1,12,-1
EndSplineSet
EndChar

StartChar: ellipsis
Encoding: 8230 8230 169
Width: 990
Flags: W
LayerCount: 2
Fore
SplineSet
219 -50 m 1,0,-1
 119 -50 l 1,1,-1
 86 -17 l 1,2,-1
 86 51 l 1,3,-1
 119 84 l 1,4,-1
 219 84 l 1,5,-1
 252 51 l 1,6,-1
 252 -17 l 1,7,-1
 219 -50 l 1,0,-1
387 -17 m 1,8,-1
 387 51 l 1,9,-1
 420 84 l 1,10,-1
 519 84 l 1,11,-1
 552 51 l 1,12,-1
 552 -17 l 1,13,-1
 519 -50 l 1,14,-1
 420 -50 l 1,15,-1
 387 -17 l 1,8,-1
687 -17 m 1,16,-1
 687 51 l 1,17,-1
 720 84 l 1,18,-1
 819 84 l 1,19,-1
 852 51 l 1,20,-1
 852 -17 l 1,21,-1
 819 -50 l 1,22,-1
 720 -50 l 1,23,-1
 687 -17 l 1,16,-1
EndSplineSet
EndChar

StartChar: Agrave
Encoding: 192 192 171
Width: 550
Flags: W
LayerCount: 2
Fore
SplineSet
215 617 m 1,0,-1
 281 617 l 1,1,-1
 281 717 l 1,2,-1
 248 750 l 1,3,-1
 81 750 l 1,4,-1
 81 684 l 1,5,-1
 215 684 l 1,6,-1
 215 617 l 1,0,-1
48 -50 m 1,7,-1
 15 -17 l 1,8,-1
 15 317 l 1,9,-1
 82 384 l 1,10,-1
 82 517 l 1,11,-1
 115 550 l 1,12,-1
 381 550 l 1,13,-1
 415 516 l 1,14,-1
 415 384 l 1,15,-1
 482 317 l 1,16,-1
 482 -50 l 1,17,-1
 415 -50 l 1,18,-1
 415 284 l 1,19,-1
 214 284 l 1,20,-1
 214 -17 l 1,21,-1
 181 -50 l 1,22,-1
 48 -50 l 1,7,-1
214 484 m 1,23,-1
 214 350 l 1,24,-1
 349 350 l 1,25,-1
 349 484 l 1,26,-1
 214 484 l 1,23,-1
EndSplineSet
EndChar

StartChar: Atilde
Encoding: 195 195 172
Width: 550
Flags: W
LayerCount: 2
Fore
SplineSet
81 617 m 1,0,-1
 14 617 l 1,1,-1
 14 716 l 1,2,-1
 48 750 l 1,3,-1
 247 750 l 1,4,-1
 281 716 l 1,5,-1
 281 684 l 1,6,-1
 348 684 l 1,7,-1
 348 750 l 1,8,-1
 415 750 l 1,9,-1
 415 651 l 1,10,-1
 381 617 l 1,11,-1
 182 617 l 1,12,-1
 148 651 l 1,13,-1
 148 684 l 1,14,-1
 81 684 l 1,15,-1
 81 617 l 1,0,-1
48 -50 m 1,16,-1
 15 -17 l 1,17,-1
 15 317 l 1,18,-1
 82 384 l 1,19,-1
 82 517 l 1,20,-1
 115 550 l 1,21,-1
 381 550 l 1,22,-1
 415 516 l 1,23,-1
 415 384 l 1,24,-1
 482 317 l 1,25,-1
 482 -50 l 1,26,-1
 415 -50 l 1,27,-1
 415 284 l 1,28,-1
 214 284 l 1,29,-1
 214 -17 l 1,30,-1
 181 -50 l 1,31,-1
 48 -50 l 1,16,-1
214 484 m 1,32,-1
 214 350 l 1,33,-1
 349 350 l 1,34,-1
 349 484 l 1,35,-1
 214 484 l 1,32,-1
EndSplineSet
EndChar

StartChar: Otilde
Encoding: 213 213 173
Width: 556
Flags: W
LayerCount: 2
Fore
SplineSet
292 484 m 1,0,-1
 93 484 l 1,1,-1
 93 18 l 1,2,-1
 358 18 l 1,3,-1
 358 315 l 1,4,-1
 292 382 l 1,5,-1
 292 484 l 1,0,-1
457 550 m 1,6,-1
 492 515 l 1,7,-1
 493 -15 l 1,8,-1
 457 -50 l 1,9,-1
 60 -50 l 1,10,-1
 24 -15 l 1,11,-1
 24 515 l 1,12,-1
 60 550 l 1,13,-1
 457 550 l 1,6,-1
92 617 m 1,14,-1
 25 617 l 1,15,-1
 25 716 l 1,16,-1
 59 750 l 1,17,-1
 258 750 l 1,18,-1
 292 716 l 1,19,-1
 292 684 l 1,20,-1
 359 684 l 1,21,-1
 359 750 l 1,22,-1
 426 750 l 1,23,-1
 426 651 l 1,24,-1
 392 617 l 1,25,-1
 193 617 l 1,26,-1
 159 651 l 1,27,-1
 159 684 l 1,28,-1
 92 684 l 1,29,-1
 92 617 l 1,14,-1
EndSplineSet
EndChar

StartChar: OE
Encoding: 338 338 174
Width: 858
Flags: W
LayerCount: 2
Fore
SplineSet
30 516 m 1,0,-1
 64 550 l 1,1,-1
 763 550 l 1,2,-1
 763 484 l 1,3,-1
 496 484 l 1,4,-1
 496 350 l 1,5,-1
 763 350 l 1,6,-1
 763 284 l 1,7,-1
 563 284 l 1,8,-1
 563 17 l 1,9,-1
 763 17 l 1,10,-1
 763 -50 l 1,11,-1
 64 -50 l 1,12,-1
 30 -16 l 1,13,-1
 30 516 l 1,0,-1
296 484 m 1,14,-1
 97 483 l 1,15,-1
 97 17 l 1,16,-1
 364 17 l 1,17,-1
 364 315 l 1,18,-1
 296 384 l 1,19,-1
 296 484 l 1,14,-1
EndSplineSet
EndChar

StartChar: oe
Encoding: 339 339 175
Width: 792
Flags: W
LayerCount: 2
Fore
SplineSet
295 350 m 1,0,-1
 163 350 l 1,1,-1
 163 250 l 1,2,-1
 229 184 l 1,3,-1
 229 17 l 1,4,-1
 295 17 l 1,5,-1
 295 350 l 1,0,-1
629 350 m 1,6,-1
 430 350 l 1,7,-1
 430 217 l 1,8,-1
 629 217 l 1,9,-1
 629 350 l 1,6,-1
64 -50 m 1,10,-1
 29 -15 l 1,11,-1
 29 383 l 1,12,-1
 63 417 l 1,13,-1
 362 417 l 1,14,-1
 380 385 l 1,15,-1
 396 417 l 1,16,-1
 661 417 l 1,17,-1
 695 383 l 1,18,-1
 695 183 l 1,19,-1
 662 150 l 1,20,-1
 496 150 l 1,21,-1
 496 17 l 1,22,-1
 629 17 l 1,23,-1
 629 84 l 1,24,-1
 696 84 l 1,25,-1
 696 -17 l 1,26,-1
 663 -50 l 1,27,-1
 396 -50 l 1,28,-1
 380 -17 l 1,29,-1
 363 -50 l 1,30,-1
 64 -50 l 1,10,-1
EndSplineSet
EndChar

StartChar: endash
Encoding: 8211 8211 176
Width: 550
Flags: W
LayerCount: 2
Fore
SplineSet
25 215 m 1,0,-1
 25 282 l 1,1,-1
 475 282 l 1,2,-1
 475 215 l 1,3,-1
 25 215 l 1,0,-1
EndSplineSet
EndChar

StartChar: emdash
Encoding: 8212 8212 177
Width: 704
Flags: W
LayerCount: 2
Fore
SplineSet
45 215 m 1,0,-1
 45 282 l 1,1,-1
 595 282 l 1,2,-1
 595 215 l 1,3,-1
 45 215 l 1,0,-1
EndSplineSet
EndChar

StartChar: quotedblleft
Encoding: 8220 8220 178
Width: 528
Flags: W
LayerCount: 2
Fore
SplineSet
39 317 m 1,0,-1
 39 550 l 1,1,-1
 107 550 l 1,2,-1
 107 417 l 1,3,-1
 173 417 l 1,4,-1
 206 384 l 1,5,-1
 206 317 l 1,6,-1
 173 284 l 1,7,-1
 72 284 l 1,8,-1
 39 317 l 1,0,-1
273 317 m 1,9,-1
 273 550 l 1,10,-1
 340 550 l 1,11,-1
 340 417 l 1,12,-1
 407 417 l 1,13,-1
 440 384 l 1,14,-1
 440 317 l 1,15,-1
 407 284 l 1,16,-1
 306 284 l 1,17,-1
 273 317 l 1,9,-1
EndSplineSet
EndChar

StartChar: quotedblright
Encoding: 8221 8221 179
Width: 528
Flags: W
LayerCount: 2
Fore
SplineSet
34 516 m 1,0,-1
 68 550 l 1,1,-1
 167 550 l 1,2,-1
 201 516 l 1,3,-1
 201 284 l 1,4,-1
 133 284 l 1,5,-1
 133 417 l 1,6,-1
 68 417 l 1,7,-1
 34 451 l 1,8,-1
 34 516 l 1,0,-1
267 516 m 1,9,-1
 301 550 l 1,10,-1
 400 550 l 1,11,-1
 434 516 l 1,12,-1
 434 284 l 1,13,-1
 367 284 l 1,14,-1
 367 417 l 1,15,-1
 301 417 l 1,16,-1
 267 451 l 1,17,-1
 267 516 l 1,9,-1
EndSplineSet
EndChar

StartChar: quoteleft
Encoding: 8216 8216 180
Width: 308
Flags: W
LayerCount: 2
Fore
SplineSet
55 317 m 1,0,-1
 55 550 l 1,1,-1
 123 550 l 1,2,-1
 123 417 l 1,3,-1
 190 417 l 1,4,-1
 223 384 l 1,5,-1
 223 317 l 1,6,-1
 190 284 l 1,7,-1
 88 284 l 1,8,-1
 55 317 l 1,0,-1
EndSplineSet
EndChar

StartChar: quoteright
Encoding: 8217 8217 181
Width: 308
Flags: W
LayerCount: 2
Fore
SplineSet
232 517 m 1,0,-1
 232 284 l 1,1,-1
 166 284 l 1,2,-1
 166 417 l 1,3,-1
 99 417 l 1,4,-1
 66 450 l 1,5,-1
 66 517 l 1,6,-1
 99 550 l 1,7,-1
 199 550 l 1,8,-1
 232 517 l 1,0,-1
EndSplineSet
EndChar

StartChar: divide
Encoding: 247 247 182
Width: 550
Flags: W
LayerCount: 2
Fore
SplineSet
168 384 m 1,0,-1
 168 450 l 1,1,-1
 202 484 l 1,2,-1
 301 484 l 1,3,-1
 335 450 l 1,4,-1
 335 384 l 1,5,-1
 301 350 l 1,6,-1
 202 350 l 1,7,-1
 168 384 l 1,0,-1
34 284 m 1,8,-1
 468 284 l 1,9,-1
 468 217 l 1,10,-1
 34 217 l 1,11,-1
 34 284 l 1,8,-1
301 150 m 1,12,-1
 335 116 l 1,13,-1
 335 51 l 1,14,-1
 301 17 l 1,15,-1
 202 17 l 1,16,-1
 168 51 l 1,17,-1
 168 116 l 1,18,-1
 202 150 l 1,19,-1
 301 150 l 1,12,-1
EndSplineSet
EndChar

StartChar: lozenge
Encoding: 9674 9674 183
Width: 605
Flags: W
LayerCount: 2
Fore
SplineSet
525 217 m 1,0,-1
 292 -16 l 1,1,-1
 258 -16 l 1,2,-1
 24 217 l 1,3,-1
 24 250 l 1,4,-1
 258 484 l 1,5,-1
 291 484 l 1,6,-1
 525 250 l 1,7,-1
 525 217 l 1,0,-1
459 234 m 1,8,-1
 275 417 l 1,9,-1
 92 234 l 1,10,-1
 275 50 l 1,11,-1
 459 234 l 1,8,-1
EndSplineSet
EndChar

StartChar: ydieresis
Encoding: 255 255 184
Width: 468
Flags: W
LayerCount: 2
Fore
SplineSet
10 518 m 1,0,-1
 10 583 l 1,1,-1
 44 617 l 1,2,-1
 144 617 l 1,3,-1
 178 583 l 1,4,-1
 178 518 l 1,5,-1
 144 484 l 1,6,-1
 44 484 l 1,7,-1
 10 518 l 1,0,-1
244 518 m 1,8,-1
 244 583 l 1,9,-1
 278 617 l 1,10,-1
 377 617 l 1,11,-1
 411 583 l 1,12,-1
 411 518 l 1,13,-1
 377 484 l 1,14,-1
 278 484 l 1,15,-1
 244 518 l 1,8,-1
144 117 m 1,16,-1
 144 17 l 1,17,-1
 344 17 l 1,18,-1
 344 417 l 1,19,-1
 411 417 l 1,20,-1
 411 -216 l 1,21,-1
 377 -250 l 1,22,-1
 10 -250 l 1,23,-1
 10 -183 l 1,24,-1
 344 -183 l 1,25,-1
 344 -50 l 1,26,-1
 43 -50 l 1,27,-1
 10 -17 l 1,28,-1
 10 383 l 1,29,-1
 44 417 l 1,30,-1
 177 417 l 1,31,-1
 211 383 l 1,32,-1
 211 184 l 1,33,-1
 144 117 l 1,16,-1
EndSplineSet
EndChar

StartChar: Ydieresis
Encoding: 376 376 185
Width: 1100
Flags: W
LayerCount: 2
Fore
SplineSet
734 -153 m 1,0,-1
 734 -216 l 1,1,-1
 899 -216 l 1,2,-1
 899 -154 l 1,3,-1
 833 -116 l 1,4,-1
 833 283 l 1,5,-1
 800 283 l 1,6,-1
 800 -116 l 1,7,-1
 734 -153 l 1,0,-1
734 -50 m 1,8,-1
 734 -116 l 1,9,-1
 766 -116 l 1,10,-1
 766 -50 l 1,11,-1
 734 -50 l 1,8,-1
634 -50 m 1,12,-1
 634 -83 l 1,13,-1
 699 -83 l 1,14,-1
 699 -50 l 1,15,-1
 634 -50 l 1,12,-1
533 -50 m 1,16,-1
 533 -83 l 1,17,-1
 599 -83 l 1,18,-1
 599 -50 l 1,19,-1
 533 -50 l 1,16,-1
400 -50 m 1,20,-1
 400 -83 l 1,21,-1
 499 -83 l 1,22,-1
 499 -50 l 1,23,-1
 400 -50 l 1,20,-1
300 -50 m 1,24,-1
 300 -83 l 1,25,-1
 366 -83 l 1,26,-1
 366 -50 l 1,27,-1
 300 -50 l 1,24,-1
266 183 m 1,28,-1
 266 84 l 1,29,-1
 300 84 l 1,30,-1
 300 183 l 1,31,-1
 266 183 l 1,28,-1
467 50 m 1,32,-1
 366 50 l 1,33,-1
 366 217 l 1,34,-1
 467 217 l 1,35,-1
 467 50 l 1,32,-1
400 183 m 1,36,-1
 400 84 l 1,37,-1
 432 84 l 1,38,-1
 432 183 l 1,39,-1
 400 183 l 1,36,-1
499 50 m 1,40,-1
 499 217 l 1,41,-1
 600 217 l 1,42,-1
 600 50 l 1,43,-1
 499 50 l 1,40,-1
532 184 m 1,44,-1
 532 84 l 1,45,-1
 566 84 l 1,46,-1
 566 184 l 1,47,-1
 532 184 l 1,44,-1
667 150 m 1,48,-1
 667 50 l 1,49,-1
 766 50 l 1,50,-1
 766 150 l 1,51,-1
 667 150 l 1,48,-1
700 84 m 1,52,-1
 700 117 l 1,53,-1
 734 117 l 1,54,-1
 734 84 l 1,55,-1
 700 84 l 1,52,-1
233 350 m 1,56,-1
 233 284 l 1,57,-1
 566 284 l 1,58,-1
 566 350 l 1,59,-1
 233 350 l 1,56,-1
766 450 m 1,60,-1
 667 450 l 1,61,-1
 667 184 l 1,62,-1
 766 184 l 1,63,-1
 766 450 l 1,60,-1
699 216 m 1,64,-1
 699 384 l 1,65,-1
 733 384 l 1,66,-1
 733 216 l 1,67,-1
 699 216 l 1,64,-1
234 549 m 1,68,-1
 234 484 l 1,69,-1
 766 484 l 1,70,-1
 766 548 l 1,71,-1
 733 615 l 1,72,-1
 697 649 l 1,73,-1
 632 684 l 1,74,-1
 368 684 l 1,75,-1
 302 649 l 1,76,-1
 267 614 l 1,77,-1
 234 549 l 1,68,-1
299 516 m 1,78,-1
 299 584 l 1,79,-1
 366 584 l 1,80,-1
 366 516 l 1,81,-1
 299 516 l 1,78,-1
399 516 m 1,82,-1
 399 617 l 1,83,-1
 500 617 l 1,84,-1
 500 516 l 1,85,-1
 399 516 l 1,82,-1
433 583 m 1,86,-1
 433 550 l 1,87,-1
 466 550 l 1,88,-1
 466 583 l 1,89,-1
 433 583 l 1,86,-1
567 550 m 1,90,-1
 567 584 l 1,91,-1
 599 584 l 1,92,-1
 599 617 l 1,93,-1
 634 617 l 1,94,-1
 634 584 l 1,95,-1
 666 584 l 1,96,-1
 666 550 l 1,97,-1
 634 550 l 1,98,-1
 634 517 l 1,99,-1
 599 517 l 1,100,-1
 599 550 l 1,101,-1
 567 550 l 1,90,-1
232 -116 m 1,102,-1
 265 -116 l 1,103,-1
 265 -50 l 1,104,-1
 232 -50 l 1,105,-1
 232 -116 l 1,102,-1
265 -152 m 1,106,-1
 199 -116 l 1,107,-1
 199 283 l 1,108,-1
 166 283 l 1,109,-1
 166 -116 l 1,110,-1
 100 -152 l 1,111,-1
 100 -216 l 1,112,-1
 265 -216 l 1,113,-1
 265 -152 l 1,106,-1
233 50 m 1,114,-1
 233 -16 l 1,115,-1
 766 -16 l 1,116,-1
 766 16 l 1,117,-1
 633 16 l 1,118,-1
 633 450 l 1,119,-1
 233 450 l 1,120,-1
 233 384 l 1,121,-1
 599 384 l 1,122,-1
 599 250 l 1,123,-1
 232 250 l 1,124,-1
 232 217 l 1,125,-1
 333 217 l 1,126,-1
 333 50 l 1,127,-1
 233 50 l 1,114,-1
132 284 m 1,128,-1
 200 352 l 1,129,-1
 200 550 l 1,130,-1
 234 617 l 1,131,-1
 300 684 l 1,132,-1
 367 717 l 1,133,-1
 633 717 l 1,134,-1
 700 684 l 1,135,-1
 768 616 l 1,136,-1
 800 550 l 1,137,-1
 800 352 l 1,138,-1
 867 284 l 1,139,-1
 867 -113 l 1,140,-1
 892 -126 l 1,141,-1
 932 -149 l 1,142,-1
 932 -250 l 1,143,-1
 700 -250 l 1,144,-1
 700 -116 l 1,145,-1
 300 -116 l 1,146,-1
 300 -250 l 1,147,-1
 66 -250 l 1,148,-1
 66 -150 l 1,149,-1
 104 -129 l 1,150,-1
 132 -116 l 1,151,-1
 132 284 l 1,128,-1
EndSplineSet
EndChar

StartChar: perthousand
Encoding: 8240 8240 186
Width: 2772
Flags: W
LayerCount: 2
Fore
SplineSet
1267 384 m 1,0,-1
 66 384 l 1,1,-1
 66 317 l 1,2,-1
 1267 317 l 1,3,-1
 1267 384 l 1,0,-1
466 450 m 1,4,-1
 466 417 l 1,5,-1
 833 417 l 1,6,-1
 833 450 l 1,7,-1
 666 450 l 1,8,-1
 666 517 l 1,9,-1
 634 517 l 1,10,-1
 634 450 l 1,11,-1
 466 450 l 1,4,-1
801 284 m 1,12,-1
 499 284 l 1,13,-1
 499 250 l 1,14,-1
 801 250 l 1,15,-1
 801 284 l 1,12,-1
1067 -50 m 1,16,-1
 1034 -50 l 1,17,-1
 1034 -16 l 1,18,-1
 1067 -16 l 1,19,-1
 1067 -50 l 1,16,-1
1067 17 m 1,20,-1
 1034 17 l 1,21,-1
 1034 50 l 1,22,-1
 1067 50 l 1,23,-1
 1067 17 l 1,20,-1
1133 -16 m 1,24,-1
 1133 -50 l 1,25,-1
 1101 -50 l 1,26,-1
 1101 -16 l 1,27,-1
 1133 -16 l 1,24,-1
1133 50 m 1,28,-1
 1133 17 l 1,29,-1
 1101 17 l 1,30,-1
 1101 50 l 1,31,-1
 1133 50 l 1,28,-1
1200 -16 m 1,32,-1
 1200 -50 l 1,33,-1
 1168 -50 l 1,34,-1
 1168 -16 l 1,35,-1
 1200 -16 l 1,32,-1
1200 50 m 1,36,-1
 1200 17 l 1,37,-1
 1168 17 l 1,38,-1
 1168 50 l 1,39,-1
 1200 50 l 1,36,-1
1267 -16 m 1,40,-1
 1267 -50 l 1,41,-1
 1235 -50 l 1,42,-1
 1235 -16 l 1,43,-1
 1267 -16 l 1,40,-1
1267 50 m 1,44,-1
 1267 17 l 1,45,-1
 1234 17 l 1,46,-1
 1234 50 l 1,47,-1
 1267 50 l 1,44,-1
2434 417 m 1,48,-1
 1851 417 l 1,49,-1
 1585 150 l 1,50,-1
 1767 150 l 1,51,-1
 1767 117 l 1,52,-1
 1834 117 l 1,53,-1
 1934 17 l 1,54,-1
 1934 -83 l 1,55,-1
 1801 -83 l 1,56,-1
 1801 -150 l 1,57,-1
 968 -150 l 1,58,-1
 968 -16 l 1,59,-1
 933 -16 l 1,60,-1
 933 -150 l 1,61,-1
 901 -150 l 1,62,-1
 901 150 l 1,63,-1
 933 150 l 1,64,-1
 933 17 l 1,65,-1
 968 17 l 1,66,-1
 968 150 l 1,67,-1
 1084 150 l 1,68,-1
 952 284 l 1,69,-1
 834 284 l 1,70,-1
 834 250 l 1,71,-1
 801 217 l 1,72,-1
 667 217 l 1,73,-1
 667 184 l 1,74,-1
 633 184 l 1,75,-1
 633 217 l 1,76,-1
 499 217 l 1,77,-1
 466 250 l 1,78,-1
 466 284 l 1,79,-1
 66 284 l 1,80,-1
 33 317 l 1,81,-1
 33 383 l 1,82,-1
 67 417 l 1,83,-1
 434 417 l 1,84,-1
 434 451 l 1,85,-1
 467 484 l 1,86,-1
 601 484 l 1,87,-1
 601 517 l 1,88,-1
 634 550 l 1,89,-1
 666 550 l 1,90,-1
 700 516 l 1,91,-1
 700 484 l 1,92,-1
 833 484 l 1,93,-1
 867 450 l 1,94,-1
 867 417 l 1,95,-1
 1267 417 l 1,96,-1
 1300 384 l 1,97,-1
 1300 317 l 1,98,-1
 1267 284 l 1,99,-1
 1217 284 l 1,100,-1
 1351 150 l 1,101,-1
 1417 150 l 1,102,-1
 1684 417 l 1,103,-1
 1435 417 l 1,104,-1
 1400 452 l 1,105,-1
 1400 516 l 1,106,-1
 1468 584 l 1,107,-1
 2468 584 l 1,108,-1
 2500 552 l 1,109,-1
 2500 484 l 1,110,-1
 2434 417 l 1,48,-1
1902 17 m 1,111,-1
 1834 84 l 1,112,-1
 1768 84 l 1,113,-1
 1768 117 l 1,114,-1
 1535 117 l 1,115,-1
 1535 84 l 1,116,-1
 1501 84 l 1,117,-1
 1501 117 l 1,118,-1
 1834 450 l 1,119,-1
 2435 450 l 1,120,-1
 2469 484 l 1,121,-1
 2469 550 l 1,122,-1
 1468 550 l 1,123,-1
 1435 516 l 1,124,-1
 1435 450 l 1,125,-1
 1734 450 l 1,126,-1
 1734 417 l 1,127,-1
 1434 117 l 1,128,-1
 1401 117 l 1,129,-1
 1401 84 l 1,130,-1
 1368 84 l 1,131,-1
 1368 117 l 1,132,-1
 1334 117 l 1,133,-1
 1167 284 l 1,134,-1
 999 284 l 1,135,-1
 1166 117 l 1,136,-1
 1000 117 l 1,137,-1
 1000 -116 l 1,138,-1
 1768 -116 l 1,139,-1
 1768 -50 l 1,140,-1
 1902 -50 l 1,141,-1
 1902 17 l 1,111,-1
EndSplineSet
EndChar

StartChar: Acircumflex
Encoding: 194 194 187
Width: 770
Flags: W
LayerCount: 2
Fore
SplineSet
665 17 m 1,0,-1
 32 17 l 1,1,-1
 32 50 l 1,2,-1
 232 250 l 1,3,-1
 266 250 l 1,4,-1
 266 616 l 1,5,-1
 300 685 l 1,6,-1
 350 720 l 1,7,-1
 398 685 l 1,8,-1
 433 616 l 1,9,-1
 433 251 l 1,10,-1
 466 251 l 1,11,-1
 665 51 l 1,12,-1
 665 17 l 1,0,-1
233 216 m 1,13,-1
 100 50 l 1,14,-1
 266 50 l 1,15,-1
 266 216 l 1,16,-1
 233 216 l 1,13,-1
300 615 m 1,17,-1
 300 50 l 1,18,-1
 399 50 l 1,19,-1
 399 615 l 1,20,-1
 366 682 l 1,21,-1
 350 695 l 1,22,-1
 333 682 l 1,23,-1
 300 615 l 1,17,-1
433 216 m 1,24,-1
 433 50 l 1,25,-1
 599 50 l 1,26,-1
 464 216 l 1,27,-1
 433 216 l 1,24,-1
382 -56 m 1,28,-1
 358 -32 l 1,29,-1
 381 -8 l 1,30,-1
 406 -33 l 1,31,-1
 382 -56 l 1,28,-1
316 -56 m 1,32,-1
 292 -32 l 1,33,-1
 315 -8 l 1,34,-1
 340 -33 l 1,35,-1
 316 -56 l 1,32,-1
284 -123 m 1,36,-1
 260 -99 l 1,37,-1
 283 -75 l 1,38,-1
 308 -100 l 1,39,-1
 284 -123 l 1,36,-1
349 -123 m 1,40,-1
 325 -99 l 1,41,-1
 348 -75 l 1,42,-1
 373 -100 l 1,43,-1
 349 -123 l 1,40,-1
416 -124 m 1,44,-1
 392 -100 l 1,45,-1
 415 -76 l 1,46,-1
 440 -101 l 1,47,-1
 416 -124 l 1,44,-1
350 -189 m 1,48,-1
 326 -165 l 1,49,-1
 349 -141 l 1,50,-1
 374 -166 l 1,51,-1
 350 -189 l 1,48,-1
449 -189 m 1,52,-1
 425 -165 l 1,53,-1
 448 -141 l 1,54,-1
 473 -166 l 1,55,-1
 449 -189 l 1,52,-1
484 -125 m 1,56,-1
 460 -101 l 1,57,-1
 483 -77 l 1,58,-1
 508 -102 l 1,59,-1
 484 -125 l 1,56,-1
551 -190 m 1,60,-1
 527 -166 l 1,61,-1
 550 -142 l 1,62,-1
 575 -167 l 1,63,-1
 551 -190 l 1,60,-1
617 -258 m 1,64,-1
 593 -234 l 1,65,-1
 616 -210 l 1,66,-1
 641 -235 l 1,67,-1
 617 -258 l 1,64,-1
483 -258 m 1,68,-1
 459 -234 l 1,69,-1
 482 -210 l 1,70,-1
 507 -235 l 1,71,-1
 483 -258 l 1,68,-1
349 -258 m 1,72,-1
 325 -234 l 1,73,-1
 348 -210 l 1,74,-1
 373 -235 l 1,75,-1
 349 -258 l 1,72,-1
217 -257 m 1,76,-1
 193 -233 l 1,77,-1
 216 -209 l 1,78,-1
 241 -234 l 1,79,-1
 217 -257 l 1,76,-1
249 -190 m 1,80,-1
 225 -166 l 1,81,-1
 248 -142 l 1,82,-1
 273 -167 l 1,83,-1
 249 -190 l 1,80,-1
216 -124 m 1,84,-1
 192 -100 l 1,85,-1
 215 -76 l 1,86,-1
 240 -101 l 1,87,-1
 216 -124 l 1,84,-1
149 -190 m 1,88,-1
 125 -166 l 1,89,-1
 148 -142 l 1,90,-1
 173 -167 l 1,91,-1
 149 -190 l 1,88,-1
85 -258 m 1,92,-1
 61 -234 l 1,93,-1
 84 -210 l 1,94,-1
 109 -235 l 1,95,-1
 85 -258 l 1,92,-1
EndSplineSet
EndChar

StartChar: Ecircumflex
Encoding: 202 202 188
Width: 825
Flags: W
LayerCount: 2
Fore
SplineSet
621 -15 m 1,0,-1
 127 -15 l 1,1,-1
 127 72 l 1,2,-1
 94 105 l 1,3,-1
 94 676 l 1,4,-1
 118 700 l 1,5,-1
 631 700 l 1,6,-1
 655 676 l 1,7,-1
 655 106 l 1,8,-1
 621 72 l 1,9,-1
 621 -15 l 1,0,-1
142 72 m 1,10,-1
 142 0 l 1,11,-1
 606 0 l 1,12,-1
 606 72 l 1,13,-1
 142 72 l 1,10,-1
109 120 m 1,14,-1
 142 87 l 1,15,-1
 606 87 l 1,16,-1
 640 121 l 1,17,-1
 640 662 l 1,18,-1
 617 685 l 1,19,-1
 132 685 l 1,20,-1
 109 662 l 1,21,-1
 109 120 l 1,14,-1
561 332 m 1,22,-1
 191 332 l 1,23,-1
 163 360 l 1,24,-1
 163 596 l 1,25,-1
 191 624 l 1,26,-1
 561 624 l 1,27,-1
 589 596 l 1,28,-1
 589 360 l 1,29,-1
 561 332 l 1,22,-1
178 586 m 1,30,-1
 178 370 l 1,31,-1
 201 347 l 1,32,-1
 551 347 l 1,33,-1
 574 370 l 1,34,-1
 574 586 l 1,35,-1
 551 609 l 1,36,-1
 201 609 l 1,37,-1
 178 586 l 1,30,-1
392 240 m 1,38,-1
 511 240 l 1,39,-1
 511 250 l 1,40,-1
 572 250 l 1,41,-1
 572 215 l 1,42,-1
 511 215 l 1,43,-1
 511 225 l 1,44,-1
 392 225 l 1,45,-1
 392 240 l 1,38,-1
EndSplineSet
EndChar

StartChar: Aacute
Encoding: 193 193 189
Width: 825
Flags: W
LayerCount: 2
Fore
SplineSet
621 -15 m 1,0,-1
 127 -15 l 1,1,-1
 127 72 l 1,2,-1
 94 105 l 1,3,-1
 94 676 l 1,4,-1
 118 700 l 1,5,-1
 631 700 l 1,6,-1
 655 676 l 1,7,-1
 655 106 l 1,8,-1
 621 72 l 1,9,-1
 621 -15 l 1,0,-1
142 72 m 1,10,-1
 142 0 l 1,11,-1
 606 0 l 1,12,-1
 606 72 l 1,13,-1
 142 72 l 1,10,-1
109 120 m 1,14,-1
 142 87 l 1,15,-1
 606 87 l 1,16,-1
 640 121 l 1,17,-1
 640 662 l 1,18,-1
 617 685 l 1,19,-1
 132 685 l 1,20,-1
 109 662 l 1,21,-1
 109 120 l 1,14,-1
561 332 m 1,22,-1
 191 332 l 1,23,-1
 163 360 l 1,24,-1
 163 596 l 1,25,-1
 191 624 l 1,26,-1
 561 624 l 1,27,-1
 589 596 l 1,28,-1
 589 360 l 1,29,-1
 561 332 l 1,22,-1
178 586 m 1,30,-1
 178 370 l 1,31,-1
 201 347 l 1,32,-1
 551 347 l 1,33,-1
 574 370 l 1,34,-1
 574 586 l 1,35,-1
 551 609 l 1,36,-1
 201 609 l 1,37,-1
 178 586 l 1,30,-1
392 240 m 1,38,-1
 511 240 l 1,39,-1
 511 250 l 1,40,-1
 572 250 l 1,41,-1
 572 215 l 1,42,-1
 511 215 l 1,43,-1
 511 225 l 1,44,-1
 392 225 l 1,45,-1
 392 240 l 1,38,-1
246 548 m 1,46,-1
 258 560 l 1,47,-1
 270 560 l 1,48,-1
 282 548 l 1,49,-1
 270 536 l 1,50,-1
 258 536 l 1,51,-1
 246 548 l 1,46,-1
494 560 m 1,52,-1
 506 548 l 1,53,-1
 494 536 l 1,54,-1
 482 536 l 1,55,-1
 470 548 l 1,56,-1
 482 560 l 1,57,-1
 494 560 l 1,52,-1
246 548 m 1,58,-1
 258 560 l 1,59,-1
 246 548 l 1,60,-1
 258 536 l 1,61,-1
 246 548 l 1,58,-1
258 560 m 1,62,-1
 258 536 l 1,63,-1
 246 548 l 1,64,-1
 258 560 l 1,62,-1
323 367 m 1,65,-1
 363 497 l 1,66,-1
 371 497 l 1,67,-1
 346 385 l 1,68,-1
 366 391 l 1,69,-1
 364 378 l 1,70,-1
 323 367 l 1,65,-1
EndSplineSet
EndChar

StartChar: Edieresis
Encoding: 203 203 190
Width: 825
Flags: W
LayerCount: 2
Fore
SplineSet
621 -15 m 1,0,-1
 127 -15 l 1,1,-1
 127 72 l 1,2,-1
 94 105 l 1,3,-1
 94 676 l 1,4,-1
 118 700 l 1,5,-1
 631 700 l 1,6,-1
 655 676 l 1,7,-1
 655 106 l 1,8,-1
 621 72 l 1,9,-1
 621 -15 l 1,0,-1
142 72 m 1,10,-1
 142 0 l 1,11,-1
 606 0 l 1,12,-1
 606 72 l 1,13,-1
 142 72 l 1,10,-1
109 120 m 1,14,-1
 142 87 l 1,15,-1
 606 87 l 1,16,-1
 640 121 l 1,17,-1
 640 662 l 1,18,-1
 617 685 l 1,19,-1
 132 685 l 1,20,-1
 109 662 l 1,21,-1
 109 120 l 1,14,-1
561 332 m 1,22,-1
 191 332 l 1,23,-1
 163 360 l 1,24,-1
 163 596 l 1,25,-1
 191 624 l 1,26,-1
 561 624 l 1,27,-1
 589 596 l 1,28,-1
 589 360 l 1,29,-1
 561 332 l 1,22,-1
178 586 m 1,30,-1
 178 370 l 1,31,-1
 201 347 l 1,32,-1
 551 347 l 1,33,-1
 574 370 l 1,34,-1
 574 586 l 1,35,-1
 551 609 l 1,36,-1
 201 609 l 1,37,-1
 178 586 l 1,30,-1
392 240 m 1,38,-1
 511 240 l 1,39,-1
 511 250 l 1,40,-1
 572 250 l 1,41,-1
 572 215 l 1,42,-1
 511 215 l 1,43,-1
 511 225 l 1,44,-1
 392 225 l 1,45,-1
 392 240 l 1,38,-1
383 532 m 1,46,-1
 383 517 l 1,47,-1
 410 517 l 1,48,-1
 436 491 l 1,49,-1
 436 440 l 1,50,-1
 410 414 l 1,51,-1
 347 414 l 1,52,-1
 321 440 l 1,53,-1
 321 491 l 1,54,-1
 347 517 l 1,55,-1
 374 517 l 1,56,-1
 374 538 l 1,57,-1
 437 538 l 1,58,-1
 437 532 l 1,59,-1
 383 532 l 1,46,-1
425 553 m 1,60,-1
 422 550 l 1,61,-1
 408 564 l 1,62,-1
 411 567 l 1,63,-1
 425 553 l 1,60,-1
440 554 m 1,64,-1
 436 554 l 1,65,-1
 436 574 l 1,66,-1
 440 574 l 1,67,-1
 440 554 l 1,64,-1
456 550 m 1,68,-1
 453 553 l 1,69,-1
 467 567 l 1,70,-1
 470 564 l 1,71,-1
 456 550 l 1,68,-1
449 521 m 1,72,-1
 452 524 l 1,73,-1
 465 511 l 1,74,-1
 462 508 l 1,75,-1
 449 521 l 1,72,-1
483 537 m 1,76,-1
 483 533 l 1,77,-1
 463 533 l 1,78,-1
 463 537 l 1,79,-1
 483 537 l 1,76,-1
EndSplineSet
EndChar

StartChar: Egrave
Encoding: 200 200 191
Width: 1293
Flags: W
LayerCount: 2
Fore
SplineSet
182 143 m 1,0,-1
 182 -18 l 1,1,-1
 983 -18 l 1,2,-1
 983 269 l 1,3,-1
 929 269 l 1,4,-1
 929 143 l 1,5,-1
 182 143 l 1,0,-1
178 269 m 2,6,7
 141 269 141 269 115.5 252.5 c 128,-1,8
 90 236 90 236 90 215 c 0,9,10
 90 191 90 191 114.5 175.5 c 128,-1,11
 139 160 139 160 182 160 c 2,12,-1
 912 160 l 1,13,-1
 912 269 l 1,14,-1
 178 269 l 2,6,7
1000 -35 m 1,15,-1
 165 -35 l 1,16,-1
 165 141 l 1,17,18
 133 146 133 146 118 152 c 0,19,20
 70 172 70 172 70 215 c 0,21,22
 70 250 70 250 103 268 c 128,-1,23
 136 286 136 286 178 286 c 2,24,-1
 1000 286 l 1,25,-1
 1000 203 l 1,26,-1
 1126 203 l 1,27,-1
 1126 186 l 1,28,-1
 1000 186 l 1,29,-1
 1000 -35 l 1,15,-1
EndSplineSet
EndChar

StartChar: Iacute
Encoding: 205 205 192
Width: 1001
Flags: W
LayerCount: 2
Fore
SplineSet
533 -216 m 1,0,-1
 366 -216 l 1,1,-1
 45 -36 l 1,2,-1
 299 217 l 1,3,-1
 299 384 l 1,4,-1
 333 549 l 1,5,-1
 365 682 l 1,6,-1
 449 766 l 1,7,-1
 525 690 l 1,8,-1
 566 549 l 1,9,-1
 600 384 l 1,10,-1
 600 218 l 1,11,-1
 854 -36 l 1,12,-1
 533 -216 l 1,0,-1
467 -84 m 1,13,-1
 467 -183 l 1,14,-1
 532 -183 l 1,15,-1
 532 -50 l 1,16,-1
 500 -50 l 1,17,-1
 500 -84 l 1,18,-1
 467 -84 l 1,13,-1
367 -50 m 1,19,-1
 367 -183 l 1,20,-1
 432 -183 l 1,21,-1
 432 -84 l 1,22,-1
 399 -84 l 1,23,-1
 399 -50 l 1,24,-1
 367 -50 l 1,19,-1
566 -41 m 1,25,-1
 566 -149 l 1,26,-1
 659 -102 l 1,27,-1
 786 -36 l 1,28,-1
 566 185 l 1,29,-1
 566 382 l 1,30,-1
 531 549 l 1,31,-1
 498 682 l 1,32,-1
 449 729 l 1,33,-1
 401 682 l 1,34,-1
 367 549 l 1,35,-1
 333 382 l 1,36,-1
 333 185 l 1,37,-1
 115 -33 l 1,38,-1
 332 -149 l 1,39,-1
 332 -40 l 1,40,-1
 366 -40 l 1,41,-1
 366 317 l 1,42,-1
 400 317 l 1,43,-1
 400 -41 l 1,44,-1
 432 -41 l 1,45,-1
 432 551 l 1,46,-1
 467 551 l 1,47,-1
 467 -41 l 1,48,-1
 499 -41 l 1,49,-1
 499 317 l 1,50,-1
 533 317 l 1,51,-1
 533 -41 l 1,52,-1
 566 -41 l 1,25,-1
476 -428 m 1,53,-1
 476 -252 l 1,54,-1
 528 -252 l 1,55,-1
 528 -428 l 1,56,-1
 644 -248 l 1,57,-1
 620 -396 l 1,58,-1
 904 -252 l 1,59,-1
 672 -448 l 1,60,-1
 908 -420 l 1,61,-1
 752 -472 l 1,62,-1
 796 -496 l 1,63,-1
 164 -496 l 1,64,-1
 200 -472 l 1,65,-1
 4 -428 l 1,66,-1
 272 -444 l 1,67,-1
 4 -252 l 1,68,-1
 300 -388 l 1,69,-1
 272 -248 l 1,70,-1
 372 -428 l 1,71,-1
 372 -252 l 1,72,-1
 428 -252 l 1,73,-1
 428 -428 l 1,74,-1
 476 -428 l 1,53,-1
EndSplineSet
EndChar

StartChar: Icircumflex
Encoding: 206 206 193
Width: 770
Flags: W
LayerCount: 2
Fore
SplineSet
622 -35 m 1,0,-1
 84 -35 l 1,1,-1
 49 0 l 1,2,-1
 49 464 l 1,3,-1
 85 500 l 1,4,-1
 621 500 l 1,5,-1
 657 464 l 1,6,-1
 657 0 l 1,7,-1
 622 -35 l 1,0,-1
379 483 m 1,8,-1
 379 356 l 1,9,-1
 462 356 l 1,10,-1
 462 483 l 1,11,-1
 379 483 l 1,8,-1
157 238 m 1,12,-1
 157 -18 l 1,13,-1
 550 -18 l 1,14,-1
 550 241 l 1,15,-1
 540 250 l 1,16,-1
 169 250 l 1,17,-1
 157 238 l 1,12,-1
140 -18 m 1,18,-1
 140 250 l 1,19,-1
 157 267 l 1,20,-1
 550 267 l 1,21,-1
 567 250 l 1,22,-1
 567 -18 l 1,23,-1
 607 -18 l 1,24,-1
 640 15 l 1,25,-1
 640 454 l 1,26,-1
 611 483 l 1,27,-1
 479 483 l 1,28,-1
 479 339 l 1,29,-1
 228 339 l 1,30,-1
 228 483 l 1,31,-1
 98 483 l 1,32,-1
 66 451 l 1,33,-1
 66 10 l 1,34,-1
 94 -18 l 1,35,-1
 140 -18 l 1,18,-1
EndSplineSet
EndChar
